<svg xmlns="http://www.w3.org/2000/svg" width="416.957" height="387.506" viewBox="0 0 416.957 387.506"><g transform="translate(52.343 66.332)"><path d="M84.5,43.5c45.383-41.742,127.856-70.4,177.151,4.583S226.623,279.549,154.3,308.481s-111.664-.351-117.1-31.774,7.612-51.815,9.081-82.72C49.108,134.44,39.115,85.246,84.5,43.5Z" transform="translate(120.367 350.045) rotate(-129)" fill="#ffc967"/><path d="M58.1,20.735c20.742-19.078,58.437-32.178,80.967,2.095S123.059,128.62,90,141.844s-51.036-.16-53.521-14.523,3.479-23.682,4.15-37.807C41.926,62.3,37.359,39.813,58.1,20.735Z" transform="translate(325.933 69.283) rotate(74)" fill="#ffa226"/></g></svg>