<svg xmlns="http://www.w3.org/2000/svg" xmlns:xlink="http://www.w3.org/1999/xlink" width="299.964" height="300" viewBox="0 0 299.964 300">
  <defs>
    <clipPath id="clip-path">
      <path id="Clip_2" data-name="Clip 2" d="M0,0H299.964V300H0Z" transform="translate(0.036)" fill="none"/>
    </clipPath>
    <clipPath id="clip-path-2">
      <path id="Clip_9" data-name="Clip 9" d="M0,0H31.8V130.8H0Z" transform="translate(0 0.356)" fill="none"/>
    </clipPath>
  </defs>
  <g id="_334795-PA005F-336" data-name="334795-PA005F-336" transform="translate(-0.036)">
    <g id="Group_4" data-name="Group 4">
      <path id="Clip_2-2" data-name="Clip 2" d="M0,0H299.964V300H0Z" transform="translate(0.036)" fill="none"/>
      <g id="Group_4-2" data-name="Group 4" clip-path="url(#clip-path)">
        <path id="Fill_3" data-name="Fill 3" d="M.6,1.2a2.7,2.7,0,0,1,1.581.461,14.526,14.526,0,0,1,1.84,1.828,4.762,4.762,0,0,0,1.249.918,3.972,3.972,0,0,0,1.78.394A3.909,3.909,0,0,0,9.3,4.136a14.338,14.338,0,0,0,2.014-1.97,3.594,3.594,0,0,1,.934-.695A2.768,2.768,0,0,1,13.5,1.2a2.7,2.7,0,0,1,1.582.461,14.489,14.489,0,0,1,1.841,1.828,4.776,4.776,0,0,0,1.249.918,3.975,3.975,0,0,0,1.78.394A3.913,3.913,0,0,0,22.2,4.136a14.423,14.423,0,0,0,2.015-1.969,3.576,3.576,0,0,1,.934-.7A2.771,2.771,0,0,1,26.4,1.2a.6.6,0,1,0,0-1.2,3.919,3.919,0,0,0-2.249.664,14.384,14.384,0,0,0-2.015,1.97,3.6,3.6,0,0,1-.934.7,2.773,2.773,0,0,1-1.253.271,2.7,2.7,0,0,1-1.582-.461,14.519,14.519,0,0,1-1.841-1.827A4.764,4.764,0,0,0,15.277.393,3.979,3.979,0,0,0,13.5,0a3.917,3.917,0,0,0-2.248.664,14.47,14.47,0,0,0-2.014,1.97,3.577,3.577,0,0,1-.934.7A2.763,2.763,0,0,1,7.049,3.6a2.694,2.694,0,0,1-1.58-.461,14.439,14.439,0,0,1-1.84-1.827A4.764,4.764,0,0,0,2.38.393,3.977,3.977,0,0,0,.6,0a.6.6,0,1,0,0,1.2" transform="translate(-13.5 102.956)" fill="#fffffe"/>
      </g>
    </g>
    <path id="Fill_5" data-name="Fill 5" d="M.6,1.2a2.7,2.7,0,0,1,1.581.461,14.526,14.526,0,0,1,1.84,1.828,4.762,4.762,0,0,0,1.249.918,3.972,3.972,0,0,0,1.78.394A3.909,3.909,0,0,0,9.3,4.136a14.377,14.377,0,0,0,2.014-1.97,3.581,3.581,0,0,1,.933-.695A2.768,2.768,0,0,1,13.5,1.2a2.7,2.7,0,0,1,1.582.461,14.489,14.489,0,0,1,1.841,1.828,4.776,4.776,0,0,0,1.249.918,3.975,3.975,0,0,0,1.78.394A3.913,3.913,0,0,0,22.2,4.136a14.423,14.423,0,0,0,2.015-1.969,3.576,3.576,0,0,1,.934-.7A2.771,2.771,0,0,1,26.4,1.2a.6.6,0,1,0,0-1.2,3.919,3.919,0,0,0-2.249.664,14.384,14.384,0,0,0-2.015,1.97,3.6,3.6,0,0,1-.934.7,2.773,2.773,0,0,1-1.253.271,2.7,2.7,0,0,1-1.582-.461,14.478,14.478,0,0,1-1.84-1.827A4.777,4.777,0,0,0,15.277.393,3.979,3.979,0,0,0,13.5,0a3.917,3.917,0,0,0-2.248.664,14.47,14.47,0,0,0-2.014,1.97,3.577,3.577,0,0,1-.934.7A2.763,2.763,0,0,1,7.049,3.6a2.694,2.694,0,0,1-1.58-.461,14.439,14.439,0,0,1-1.84-1.827A4.764,4.764,0,0,0,2.38.393,3.977,3.977,0,0,0,.6,0a.6.6,0,1,0,0,1.2" transform="translate(18.9 201.056)" fill="#fffffe"/>
    <path id="Fill_6" data-name="Fill 6" d="M.6,1.2a2.7,2.7,0,0,1,1.581.461,14.526,14.526,0,0,1,1.84,1.828,4.762,4.762,0,0,0,1.249.918,3.972,3.972,0,0,0,1.78.394A3.909,3.909,0,0,0,9.3,4.136a14.377,14.377,0,0,0,2.014-1.97,3.581,3.581,0,0,1,.933-.695A2.768,2.768,0,0,1,13.5,1.2a2.7,2.7,0,0,1,1.582.461,14.489,14.489,0,0,1,1.841,1.828,4.776,4.776,0,0,0,1.249.918,3.975,3.975,0,0,0,1.78.394A3.913,3.913,0,0,0,22.2,4.136a14.423,14.423,0,0,0,2.015-1.969,3.576,3.576,0,0,1,.934-.7A2.771,2.771,0,0,1,26.4,1.2a.6.6,0,1,0,0-1.2,3.919,3.919,0,0,0-2.249.664,14.424,14.424,0,0,0-2.015,1.97,3.587,3.587,0,0,1-.934.7,2.773,2.773,0,0,1-1.253.271,2.7,2.7,0,0,1-1.582-.461,14.519,14.519,0,0,1-1.841-1.827A4.764,4.764,0,0,0,15.277.393,3.979,3.979,0,0,0,13.5,0a3.917,3.917,0,0,0-2.248.664,14.47,14.47,0,0,0-2.014,1.97,3.577,3.577,0,0,1-.934.7A2.763,2.763,0,0,1,7.049,3.6a2.694,2.694,0,0,1-1.58-.461,14.439,14.439,0,0,1-1.84-1.827A4.764,4.764,0,0,0,2.38.393,3.977,3.977,0,0,0,.6,0a.6.6,0,1,0,0,1.2" transform="translate(12.1 6.157)" fill="#fffffe"/>
    <path id="Fill_7" data-name="Fill 7" d="M.6,1.2a2.7,2.7,0,0,1,1.581.461,14.526,14.526,0,0,1,1.84,1.828,4.762,4.762,0,0,0,1.249.918,3.972,3.972,0,0,0,1.78.394A3.909,3.909,0,0,0,9.3,4.136a14.338,14.338,0,0,0,2.014-1.97,3.594,3.594,0,0,1,.934-.695A2.768,2.768,0,0,1,13.5,1.2a2.7,2.7,0,0,1,1.582.461,14.489,14.489,0,0,1,1.841,1.828,4.776,4.776,0,0,0,1.249.918,3.975,3.975,0,0,0,1.78.394A3.913,3.913,0,0,0,22.2,4.136a14.423,14.423,0,0,0,2.015-1.969,3.576,3.576,0,0,1,.934-.7A2.771,2.771,0,0,1,26.4,1.2a.6.6,0,1,0,0-1.2,3.919,3.919,0,0,0-2.249.664,14.424,14.424,0,0,0-2.015,1.97,3.587,3.587,0,0,1-.934.7,2.781,2.781,0,0,1-1.253.271,2.7,2.7,0,0,1-1.582-.461,14.519,14.519,0,0,1-1.841-1.827A4.764,4.764,0,0,0,15.277.393,3.979,3.979,0,0,0,13.5,0a3.912,3.912,0,0,0-2.248.664A14.435,14.435,0,0,0,9.235,2.633a3.577,3.577,0,0,1-.934.7A2.763,2.763,0,0,1,7.049,3.6a2.694,2.694,0,0,1-1.58-.461,14.439,14.439,0,0,1-1.84-1.827A4.764,4.764,0,0,0,2.38.393,3.977,3.977,0,0,0,.6,0a.6.6,0,1,0,0,1.2" transform="translate(236.7 18.056)" fill="#fffffe"/>
    <g id="Group_11" data-name="Group 11" transform="translate(268.2 55.2)">
      <path id="Clip_9-2" data-name="Clip 9" d="M0,0H31.8V130.8H0Z" transform="translate(0 0.356)" fill="none"/>
      <g id="Group_11-2" data-name="Group 11" clip-path="url(#clip-path-2)">
        <path id="Fill_8" data-name="Fill 8" d="M.6,1.2a2.7,2.7,0,0,1,1.581.461,14.526,14.526,0,0,1,1.84,1.828,4.762,4.762,0,0,0,1.249.918,3.972,3.972,0,0,0,1.78.394A3.909,3.909,0,0,0,9.3,4.136a14.338,14.338,0,0,0,2.014-1.97,3.594,3.594,0,0,1,.934-.695A2.768,2.768,0,0,1,13.5,1.2a2.7,2.7,0,0,1,1.582.461,14.489,14.489,0,0,1,1.841,1.828,4.776,4.776,0,0,0,1.249.918,3.975,3.975,0,0,0,1.78.394A3.913,3.913,0,0,0,22.2,4.136a14.423,14.423,0,0,0,2.015-1.969,3.576,3.576,0,0,1,.934-.7A2.771,2.771,0,0,1,26.4,1.2a.6.6,0,1,0,0-1.2,3.919,3.919,0,0,0-2.249.664,14.424,14.424,0,0,0-2.015,1.97,3.587,3.587,0,0,1-.934.7,2.773,2.773,0,0,1-1.253.271,2.7,2.7,0,0,1-1.582-.461,14.519,14.519,0,0,1-1.841-1.827A4.764,4.764,0,0,0,15.277.393,3.979,3.979,0,0,0,13.5,0a3.912,3.912,0,0,0-2.248.664A14.435,14.435,0,0,0,9.235,2.633a3.577,3.577,0,0,1-.934.7A2.763,2.763,0,0,1,7.049,3.6a2.694,2.694,0,0,1-1.58-.461,14.439,14.439,0,0,1-1.84-1.827A4.764,4.764,0,0,0,2.38.393,3.977,3.977,0,0,0,.6,0a.6.6,0,1,0,0,1.2" transform="translate(0 0.356)" fill="#fffffe"/>
        <path id="Fill_10" data-name="Fill 10" d="M.6,1.2a2.7,2.7,0,0,1,1.581.461,14.526,14.526,0,0,1,1.84,1.828,4.762,4.762,0,0,0,1.249.918,3.972,3.972,0,0,0,1.78.394A3.909,3.909,0,0,0,9.3,4.136a14.338,14.338,0,0,0,2.014-1.97,3.594,3.594,0,0,1,.934-.695A2.768,2.768,0,0,1,13.5,1.2a2.7,2.7,0,0,1,1.582.461,14.489,14.489,0,0,1,1.841,1.828,4.776,4.776,0,0,0,1.249.918,3.975,3.975,0,0,0,1.78.394A3.913,3.913,0,0,0,22.2,4.136a14.423,14.423,0,0,0,2.015-1.969,3.576,3.576,0,0,1,.934-.7A2.771,2.771,0,0,1,26.4,1.2a.6.6,0,1,0,0-1.2,3.919,3.919,0,0,0-2.249.664,14.424,14.424,0,0,0-2.015,1.97,3.587,3.587,0,0,1-.934.7,2.773,2.773,0,0,1-1.253.271,2.7,2.7,0,0,1-1.582-.461,14.519,14.519,0,0,1-1.841-1.827A4.764,4.764,0,0,0,15.277.393,3.979,3.979,0,0,0,13.5,0a3.917,3.917,0,0,0-2.248.664,14.47,14.47,0,0,0-2.014,1.97,3.577,3.577,0,0,1-.934.7A2.763,2.763,0,0,1,7.049,3.6a2.694,2.694,0,0,1-1.58-.461,14.439,14.439,0,0,1-1.84-1.827A4.764,4.764,0,0,0,2.38.393,3.977,3.977,0,0,0,.6,0a.6.6,0,1,0,0,1.2" transform="translate(12.9 126.356)" fill="#fffffe"/>
      </g>
    </g>
    <path id="Fill_12" data-name="Fill 12" d="M.6,1.2a2.7,2.7,0,0,1,1.581.461,14.526,14.526,0,0,1,1.84,1.828,4.762,4.762,0,0,0,1.249.918,3.972,3.972,0,0,0,1.78.394A3.909,3.909,0,0,0,9.3,4.136a14.338,14.338,0,0,0,2.014-1.97,3.594,3.594,0,0,1,.934-.695A2.768,2.768,0,0,1,13.5,1.2a2.7,2.7,0,0,1,1.582.461,14.489,14.489,0,0,1,1.841,1.828,4.776,4.776,0,0,0,1.249.918,3.975,3.975,0,0,0,1.78.394A3.913,3.913,0,0,0,22.2,4.136a14.423,14.423,0,0,0,2.015-1.969,3.576,3.576,0,0,1,.934-.7A2.771,2.771,0,0,1,26.4,1.2a.6.6,0,1,0,0-1.2,3.919,3.919,0,0,0-2.249.664,14.424,14.424,0,0,0-2.015,1.97,3.587,3.587,0,0,1-.934.7,2.773,2.773,0,0,1-1.253.271,2.7,2.7,0,0,1-1.582-.461,14.519,14.519,0,0,1-1.841-1.827A4.764,4.764,0,0,0,15.277.393,3.979,3.979,0,0,0,13.5,0a3.917,3.917,0,0,0-2.248.664,14.47,14.47,0,0,0-2.014,1.97,3.577,3.577,0,0,1-.934.7A2.763,2.763,0,0,1,7.049,3.6a2.694,2.694,0,0,1-1.58-.461,14.439,14.439,0,0,1-1.84-1.827A4.764,4.764,0,0,0,2.38.393,3.977,3.977,0,0,0,.6,0a.6.6,0,1,0,0,1.2" transform="translate(224.3 24.157)" fill="#fffffe"/>
    <path id="Fill_13" data-name="Fill 13" d="M.6,1.2a2.7,2.7,0,0,1,1.581.461,14.526,14.526,0,0,1,1.84,1.828,4.762,4.762,0,0,0,1.249.918,3.972,3.972,0,0,0,1.78.394A3.909,3.909,0,0,0,9.3,4.136a14.338,14.338,0,0,0,2.014-1.97,3.594,3.594,0,0,1,.934-.695A2.768,2.768,0,0,1,13.5,1.2a2.7,2.7,0,0,1,1.582.461,14.489,14.489,0,0,1,1.841,1.828,4.776,4.776,0,0,0,1.249.918,3.975,3.975,0,0,0,1.78.394A3.913,3.913,0,0,0,22.2,4.136a14.423,14.423,0,0,0,2.015-1.969,3.576,3.576,0,0,1,.934-.7A2.771,2.771,0,0,1,26.4,1.2a.6.6,0,1,0,0-1.2,3.921,3.921,0,0,0-2.249.664,14.424,14.424,0,0,0-2.015,1.97,3.587,3.587,0,0,1-.934.7,2.773,2.773,0,0,1-1.253.271,2.7,2.7,0,0,1-1.582-.461,14.519,14.519,0,0,1-1.841-1.827A4.764,4.764,0,0,0,15.277.393,3.979,3.979,0,0,0,13.5,0a3.912,3.912,0,0,0-2.248.664A14.435,14.435,0,0,0,9.235,2.633a3.577,3.577,0,0,1-.934.7A2.763,2.763,0,0,1,7.049,3.6a2.694,2.694,0,0,1-1.58-.461,14.439,14.439,0,0,1-1.84-1.827A4.764,4.764,0,0,0,2.38.393,3.977,3.977,0,0,0,.6,0a.6.6,0,1,0,0,1.2" transform="translate(44.4 39.956)" fill="#fffffe"/>
    <path id="Fill_14" data-name="Fill 14" d="M.6,1.2a2.7,2.7,0,0,1,1.581.461,14.526,14.526,0,0,1,1.84,1.828,4.762,4.762,0,0,0,1.249.918,3.974,3.974,0,0,0,1.78.394A3.909,3.909,0,0,0,9.3,4.136a14.338,14.338,0,0,0,2.014-1.97,3.594,3.594,0,0,1,.934-.695A2.768,2.768,0,0,1,13.5,1.2a2.7,2.7,0,0,1,1.582.461,14.489,14.489,0,0,1,1.841,1.828,4.776,4.776,0,0,0,1.249.918,3.975,3.975,0,0,0,1.78.394A3.913,3.913,0,0,0,22.2,4.136a14.39,14.39,0,0,0,2.015-1.969,3.576,3.576,0,0,1,.934-.7A2.771,2.771,0,0,1,26.4,1.2a.6.6,0,1,0,0-1.2,3.921,3.921,0,0,0-2.249.664,14.424,14.424,0,0,0-2.015,1.97,3.587,3.587,0,0,1-.934.7,2.773,2.773,0,0,1-1.253.271,2.694,2.694,0,0,1-1.581-.461,14.44,14.44,0,0,1-1.841-1.827A4.777,4.777,0,0,0,15.277.393,3.979,3.979,0,0,0,13.5,0a3.917,3.917,0,0,0-2.248.664,14.47,14.47,0,0,0-2.014,1.97,3.577,3.577,0,0,1-.934.7A2.763,2.763,0,0,1,7.049,3.6a2.694,2.694,0,0,1-1.58-.461,14.439,14.439,0,0,1-1.84-1.827A4.764,4.764,0,0,0,2.38.393,3.977,3.977,0,0,0,.6,0a.6.6,0,1,0,0,1.2" transform="translate(32 46.057)" fill="#fffffe"/>
    <path id="Fill_15" data-name="Fill 15" d="M189.4,13c0,7.18-42.4,13-94.7,13S0,20.18,0,13,42.4,0,94.7,0s94.7,5.82,94.7,13" transform="translate(60.1 243.3)" fill="#ebebeb"/>
    <path id="Fill_16" data-name="Fill 16" d="M164.3,231.092c-3.356-.251-6.84-.476-10.427-.671a99.4,99.4,0,1,0-68.333-.074q-5.4.28-10.471.646a119.812,119.812,0,1,1,89.231.1" transform="translate(35.788 13.789)" fill="#d6aedc"/>
    <path id="Fill_17" data-name="Fill 17" d="M44.74,9.278A119.487,119.487,0,0,1,0,.646Q5.063.281,10.471,0A99.214,99.214,0,0,0,44.739,6.065,99.238,99.238,0,0,0,78.8.074c3.587.2,7.071.419,10.427.671A119.466,119.466,0,0,1,44.74,9.278" transform="translate(110.861 244.135)" fill="#6479a1"/>
    <path id="Fill_18" data-name="Fill 18" d="M133.464,192.809h0c-11.085-.6-22.815-.91-34.865-.91-11.528,0-22.788.281-33.467.835A99.29,99.29,0,0,1,0,99.4,100.135,100.135,0,0,1,2.019,79.367,98.854,98.854,0,0,1,16.976,43.824,99.689,99.689,0,0,1,60.709,7.811,98.9,98.9,0,0,1,79.367,2.019a100.371,100.371,0,0,1,40.065,0,98.854,98.854,0,0,1,35.543,14.956,99.689,99.689,0,0,1,36.013,43.733,98.9,98.9,0,0,1,5.792,18.658,100.121,100.121,0,0,1-2.828,50.784,99.637,99.637,0,0,1-60.487,62.657ZM110.081,27.935a12.437,12.437,0,0,0-5.952,1.534,21.519,21.519,0,0,0-5.269,4.122c-3.356,3.45-6.473,8.147-9.772,13.12l-.006.01c-.885,1.334-1.8,2.714-2.73,4.082a69.989,69.989,0,0,0-22.812,8.569,70.522,70.522,0,1,0,60.737-5.264c-.09-1.544-.122-3.181-.154-4.765-.1-4.808-.195-9.777-1.834-13.718a11.528,11.528,0,0,0-3.807-5.009,14.974,14.974,0,0,0-7.272-2.631C110.826,27.952,110.447,27.935,110.081,27.935Z" transform="translate(56.2 51.401)" fill="#b944cc"/>
    <path id="Fill_19" data-name="Fill 19" d="M34.268,6.9A99.214,99.214,0,0,1,0,.835C10.406.3,21.685,0,33.468,0,45.781,0,57.542.322,68.333.91A99.238,99.238,0,0,1,34.268,6.9" transform="translate(121.332 243.3)" fill="#8092b3"/>
    <path id="Fill_20" data-name="Fill 20" d="M70.6,140A70.607,70.607,0,0,1,57.551,0,86.644,86.644,0,0,1,46.924,13.309c-5.776,5.227-17.879,4.676-21.089,13.021-2.338,6.08-1.122,14.888,8.331,19.645-2.608,3.379-4.67,8.08-6.038,14.969-3.852,19.393-5.777,26.683-6.465,32.6-.631,5.432,1.174,7.616,5.628,7.616q.593,0,1.249-.051c5.364-.413,6.877-9.766,8.527-18.843,1.6-8.769,3.319-18.052,4.549-18.052a.26.26,0,0,1,.128.035c1.238.688,3.439,11.141,4.814,12.791.344.413,2.064.568,4.449.568,6.73,0,18.762-1.231,20.17-1.378,1.408.146,13.439,1.378,20.17,1.378,2.386,0,4.106-.155,4.45-.568,1.375-1.65,3.575-12.1,4.813-12.791a.26.26,0,0,1,.128-.035c1.232,0,2.955,9.283,4.549,18.052,1.65,9.077,3.163,18.43,8.527,18.843q.656.05,1.25.051c4.454,0,6.259-2.183,5.627-7.616-.688-5.914-2.613-13.2-6.464-32.6-1.485-7.476-3.787-12.376-6.718-15.8,3.9-2.275,6.911-6.284,5.159-13.4-3.026-12.287-12.653-11.1-16.138-21.823A26.741,26.741,0,0,1,95.477,3.3,70.612,70.612,0,0,1,70.6,140" transform="translate(85 102.204)" fill="#691d75"/>
    <path id="Fill_21" data-name="Fill 21" d="M32.016,27.56c3.388-.734,19.81-4.807,31.37-16.924A42.8,42.8,0,0,1,55.834,0L31.693,3.762,7.552,0A42.781,42.781,0,0,1,0,10.637C11.56,22.753,27.982,26.826,31.372,27.56l.007.13s.116-.021.315-.062c.2.041.314.062.314.062l.008-.13" transform="translate(124.439 218.3)" fill="#3e5976"/>
    <path id="Fill_22" data-name="Fill 22" d="M47.955,2.513C36.677.313,16.688-.513,7.885,4.164S-6.143,20.484,13.3,30.3s44.1.367,63.727.184,25.581,4.034,33.466,2.659c19.806,1.651,44.252-3.728,48.3-12.845,4.8-10.8-7.042-20.99-23.913-20.257S114.432-1.429,106.364,9.3c-18.614,4.217-22.282,4.493-28.058.183s-8.527-.458-13.021-1.651S55.932-.7,47.955,2.513" transform="translate(72.508 226.606)" fill="#f5c2a5"/>
    <path id="Fill_23" data-name="Fill 23" d="M22.114,36.177C16.338,41.4,4.235,40.853,1.025,49.2S1.3,71.021,23.581,72.121s45.3-.551,50.706-1.376,16.6-3.85,13.571-16.138-12.653-11.1-16.138-21.823S75.48,2.252,57.6.051c-14.4-1.283-21.182,22.1-35.486,36.127" transform="translate(109.81 79.336)" fill="#643d7b"/>
    <path id="Fill_24" data-name="Fill 24" d="M.307.6H.424A5.916,5.916,0,0,1,3.9,1.823,13.156,13.156,0,0,1,8,7.442,21.923,21.923,0,0,1,9.627,15.8a21.65,21.65,0,0,1-.272,3.439c-.689,4.3-1.661,8.521-1.663,12.379A14.34,14.34,0,0,0,9,38.023,12.406,12.406,0,0,0,13.967,43.2a26.314,26.314,0,0,1,6.922,5.718,10.55,10.55,0,0,1,2.639,6.611c0,2.483-1.1,5.11-3.709,7.837a.3.3,0,0,0,.434.415c2.68-2.8,3.876-5.583,3.875-8.251a11.138,11.138,0,0,0-2.773-6.988,26.89,26.89,0,0,0-7.079-5.855,11.8,11.8,0,0,1-4.74-4.923,13.75,13.75,0,0,1-1.244-6.145c0-3.758.959-7.96,1.655-12.284a22.308,22.308,0,0,0,.279-3.534A21.555,21.555,0,0,0,7.355,4.849,11.937,11.937,0,0,0,4.249,1.337,6.511,6.511,0,0,0,.424,0L.293,0A.3.3,0,1,0,.307.6" transform="translate(167.5 80.46)" fill="#352047"/>
    <path id="Fill_25" data-name="Fill 25" d="M5.815,21.057C-.373,25.183-3.193,49.6,5.4,54.273S36.693,56.68,37.242,54c-4.332-4.814-4.676-13.2-2.819-21.731s3.164-12.447,2.888-18.086S34.767-.4,28.51.014C21.7.289,8.635,11.086,5.815,21.057" transform="translate(137.777 83.98)" fill="#422757"/>
    <path id="Fill_26" data-name="Fill 26" d="M.268.6A3.218,3.218,0,0,1,1.973,1.722,15.241,15.241,0,0,1,4.9,6.857a24.469,24.469,0,0,1,1.411,8.292,26.751,26.751,0,0,1-.457,4.9c-1.2,6.458-3.572,14.342-3.575,21.515,0,5.079,1.2,9.834,4.9,13.415a.3.3,0,1,0,.417-.431c-3.545-3.434-4.714-7.99-4.716-12.984,0-7.045,2.351-14.9,3.565-21.4a27.331,27.331,0,0,0,.467-5.011A24.155,24.155,0,0,0,4.528,4.472,13.425,13.425,0,0,0,2.41,1.31,3.734,3.734,0,0,0,.332,0,.3.3,0,0,0,.268.6" transform="translate(168.531 84.038)" fill="#352047"/>
    <path id="Fill_27" data-name="Fill 27" d="M.781.119A4.306,4.306,0,0,0,0,2.788C0,4.906.932,7.5,1.842,10.317a29.252,29.252,0,0,1,1.813,8.737,10.535,10.535,0,0,1-1.381,5.439.3.3,0,0,0,.518.3,11.137,11.137,0,0,0,1.463-5.742,29.792,29.792,0,0,0-1.843-8.923C1.5,7.311.6,4.732.6,2.788A3.712,3.712,0,0,1,1.259.48.3.3,0,1,0,.781.119" transform="translate(144.636 111.27)" fill="#352047"/>
    <path id="Fill_28" data-name="Fill 28" d="M99.15,79.359c-.688-5.914-2.613-13.2-6.464-32.6s-13.2-21.456-24.757-25.444S56.651,7.977,57.2.688L49.774.025V0l-.138.012L49.5,0V.025L42.071.688c.55,7.289.825,16.642-10.728,20.631S10.438,27.37,6.587,46.763.81,73.445.122,79.359,1.635,87.337,7,86.924s6.877-9.766,8.527-18.843,3.44-18.7,4.677-18.017S23.642,61.2,25.017,62.854c1.313,1.577,22.712-.612,24.619-.81,1.907.2,23.305,2.387,24.62.81,1.375-1.65,3.575-12.1,4.813-12.791S82.1,59,83.746,68.081s3.163,18.43,8.527,18.843,7.565-1.65,6.877-7.565" transform="translate(106.541 116.384)" fill="#f5c2a5"/>
    <path id="Fill_29" data-name="Fill 29" d="M16.444,12.406a18.8,18.8,0,0,1-1.33-6.572,18.859,18.859,0,0,0,1.333,6.57h0Z" transform="translate(148.45 117.072)" fill="#7f525e"/>
    <path id="Fill_30" data-name="Fill 30" d="M8.782,16.436A13.261,13.261,0,0,1,0,12.916,16.431,16.431,0,0,0,.917,9.689s0,0,0,0l0-.015,0-.01,0-.01c0-.005,0-.01,0-.016a.018.018,0,0,0,0-.006l0-.019a.005.005,0,0,1,0,0,25.38,25.38,0,0,0,.352-4.261V5.3c.007-1.581-.093-3.139-.2-4.612L8.506.025V0l.137.012L8.782,0V.025l7.426.663c-.3,3.923-.512,8.446,1.153,12.406a13.194,13.194,0,0,1-8.579,3.342" transform="translate(147.533 116.384)" fill="#daa082"/>
    <path id="Fill_31" data-name="Fill 31" d="M32.643,22.373c0,12.356-7.307,22.373-16.321,22.373S0,34.729,0,22.373,7.308,0,16.322,0,32.643,10.016,32.643,22.373" transform="translate(139.993 76.178)" fill="#f5c2a5"/>
    <path id="Fill_32" data-name="Fill 32" d="M4.469.669A1.319,1.319,0,0,1,4.03,1.7a1.581,1.581,0,0,1-1.048.38A1.69,1.69,0,0,1,1.93,1.71,2.231,2.231,0,0,1,1.182.455.6.6,0,1,0,.018.746,3.427,3.427,0,0,0,1.186,2.651a2.887,2.887,0,0,0,1.8.625,2.779,2.779,0,0,0,1.846-.684A2.529,2.529,0,0,0,5.669.669a.6.6,0,1,0-1.2,0" transform="translate(144.85 95.085)" fill="#0a0b09"/>
    <path id="Fill_33" data-name="Fill 33" d="M0,3.989A3.989,3.989,0,1,0,3.988,0,3.989,3.989,0,0,0,0,3.989" transform="translate(143.249 99.949)" fill="#e8838b"/>
    <path id="Fill_34" data-name="Fill 34" d="M5,.205A4.767,4.767,0,0,0,3.577,0,4.826,4.826,0,0,0,.082,1.385.3.3,0,1,0,.517,1.8,4.236,4.236,0,0,1,3.577.6,4.165,4.165,0,0,1,4.818.777.3.3,0,1,0,5,.205" transform="translate(145.011 88.523)" fill="#643d7b"/>
    <path id="Fill_35" data-name="Fill 35" d="M53.355,50.8c2.171-8.069,4.16-17.6,4.16-17.6-5.425-7.886-5.788-18.34-5.606-29.709C47.567,1.833,43.951,0,43.951,0c1.627,7.519,5.607,30.808-13.927,30.808a39.742,39.742,0,0,1-2.2,10.937c-.125-3.956-.238-7.69-.331-10.937C7.958,30.808,11.938,7.519,13.565,0c0,0-3.617,1.833-7.958,3.484C5.789,14.853,5.426,25.306,0,33.193c0,0,1.99,9.536,4.161,17.6s4.34,19.989-.725,33.56c1.884.7,7.57,1.736,13.366,2.134,21.729,2.619,34.361-1.044,37.278-2.134-5.065-13.571-2.9-25.492-.725-33.56" transform="translate(127.374 135.961)" fill="#e36882"/>
    <path id="Fill_36" data-name="Fill 36" d="M41.592,36.678c-6.568-.687-22.786-3.713-29.89-8.665S4.2,21,4.732,12.472,2.453-.732,1.113.093-.093,11.234.175,20.312-.63,32.552,3.257,34.891,24.7,46.856,33.818,49.745c10.991,3.713,15.95,1.1,15.281-6.326s-7.507-6.74-7.507-6.74" transform="translate(156.319 153.564)" fill="#f5c2a5"/>
    <path id="Fill_37" data-name="Fill 37" d="M7.566,36.678c6.568-.687,22.787-3.713,29.891-8.665S44.962,21,44.426,12.472,46.7-.732,48.046.093s1.205,11.141.937,20.218.8,12.241-3.083,14.579S24.454,46.856,15.34,49.745C4.35,53.458-.609,50.845.06,43.418s7.506-6.74,7.506-6.74" transform="translate(107.337 153.564)" fill="#f5c2a5"/>
    <path id="Fill_38" data-name="Fill 38" d="M.7,13.3c-.01-.178-.021-.361-.034-.547v0C.621,12.033.6,11.341.6,10.679A21.605,21.605,0,0,1,1.776,3.124,7.152,7.152,0,0,1,2.822,1.184,2.206,2.206,0,0,1,3.307.727.67.67,0,0,1,3.658.6.314.314,0,0,1,3.83.649.622.622,0,0,1,4.012.9a5.392,5.392,0,0,1,.365,1.357A60.777,60.777,0,0,1,4.8,10.864c0,3.074-.079,6.485-.175,9.739-.043,1.454-.051,2.756-.051,3.926,0,.772,0,1.487,0,2.15a33.46,33.46,0,0,1-.144,3.8,6.517,6.517,0,0,1-.756,2.555.3.3,0,0,0,.519.3,7.1,7.1,0,0,0,.832-2.785,33.849,33.849,0,0,0,.149-3.872c0-.665,0-1.379,0-2.15,0-1.167.008-2.462.051-3.908.1-3.257.175-6.673.175-9.757,0-2.759-.063-5.249-.235-7.129a16.1,16.1,0,0,0-.35-2.329A4,4,0,0,0,4.551.638a1.165,1.165,0,0,0-.407-.5A.922.922,0,0,0,3.658,0a1.26,1.26,0,0,0-.677.223,3.7,3.7,0,0,0-1.07,1.225C.893,3.152,0,6.308,0,10.679q0,1.013.067,2.112h0c.013.182.023.363.034.541A.3.3,0,1,0,.7,13.3" transform="translate(151.396 153.263)" fill="#bc7e5f"/>
    <path id="Fill_39" data-name="Fill 39" d="M49.66,12.975C49.936,2.247,33.218-5.352,25.73,4.722c-5.181,6.968.641,7.931-10,17.376-11.49,10.2.734,20.035-3.392,26.224S-6.546,62.947,3.356,77.114s24.4.35,23.749-8.069c-.917-11.873-8.466-18.619-2.935-24.94,6.1-6.968,6.969-9.857,6.418-17.146S35.54,6.511,46.5,13.525c2.475,1.65,3.026.688,3.163-.55" transform="translate(118.207 67.099)" fill="#7e5593"/>
    <path id="Fill_40" data-name="Fill 40" d="M7.737.071C2.449.747.053,8.021,0,16.378,1.144,9.232,6.5.866,15.714,6.764a6.132,6.132,0,0,0,1.493.775C15.559,3.814,13.087-.614,7.737.071" transform="translate(148.991 73.861)" fill="#643d7b"/>
    <path id="Fill_41" data-name="Fill 41" d="M.52,4.172A8.623,8.623,0,0,1,3.127,2.265,20.741,20.741,0,0,1,8.7.6.3.3,0,0,0,8.591,0,21.338,21.338,0,0,0,2.86,1.728,9.232,9.232,0,0,0,.08,3.764a.3.3,0,0,0,.44.408" transform="translate(113.104 188.934)" fill="#bc7e5f"/>
    <path id="Fill_42" data-name="Fill 42" d="M.483,2.831A10.463,10.463,0,0,1,4.55,1.222,32.441,32.441,0,0,1,11.247.6a62.366,62.366,0,0,1,23.87,5.2c5.81,2.485,10.173,4.42,14,5.737a31.825,31.825,0,0,0,10.743,2.017,39.431,39.431,0,0,0,8.821-1.134,57.567,57.567,0,0,1,12.328-1.643,14.794,14.794,0,0,1,6.488,1.145,4.374,4.374,0,0,1,1.695,1.42,3.514,3.514,0,0,1,.581,2.015l0,.154a13.25,13.25,0,0,1-1.525,6.454,5.349,5.349,0,0,1-4.17,2.61.3.3,0,0,0,.07.6,5.958,5.958,0,0,0,4.611-2.892,13.8,13.8,0,0,0,1.614-6.749c0-.058,0-.116,0-.173a4.117,4.117,0,0,0-.683-2.35,5.887,5.887,0,0,0-3.272-2.161,18.639,18.639,0,0,0-5.409-.67,58.136,58.136,0,0,0-12.461,1.658,38.862,38.862,0,0,1-8.688,1.119,31.228,31.228,0,0,1-10.548-1.984c-3.785-1.3-8.142-3.234-13.955-5.721A62.956,62.956,0,0,0,11.247,0,32.95,32.95,0,0,0,4.424.636,11.015,11.015,0,0,0,.117,2.356a.3.3,0,0,0,.367.475" transform="translate(99.441 234.779)" fill="#bc7e5f"/>
    <path id="Fill_43" data-name="Fill 43" d="M.6,7.026l0-.117A5.837,5.837,0,0,1,2.775,2.585,8.542,8.542,0,0,1,8.384.6q.431,0,.877.039a.3.3,0,0,0,.053-.6Q8.842,0,8.384,0C3.546,0,.011,3.376,0,6.909l0,.133a.3.3,0,0,0,.6-.016" transform="translate(116.219 228.322)" fill="#bc7e5f"/>
    <path id="Fill_44" data-name="Fill 44" d="M6.7.338a2.419,2.419,0,0,1,.02.307,1.605,1.605,0,0,1-.214.837,1.975,1.975,0,0,1-1.055.8,5.285,5.285,0,0,1-1.835.282,9.471,9.471,0,0,1-1.256-.088L2.31,2.472l-.047.009a9.381,9.381,0,0,1-1.674.193c-.093,0-.157,0-.2-.007l-.04,0H.347L.33,2.775l.019-.112h0L.33,2.775l.019-.112a.3.3,0,0,0-.1.592,2.242,2.242,0,0,0,.338.019,9.934,9.934,0,0,0,1.785-.2l-.056-.295-.04.3a10.2,10.2,0,0,0,1.336.093,5.083,5.083,0,0,0,2.593-.582,2.311,2.311,0,0,0,.812-.8,2.206,2.206,0,0,0,.3-1.143A2.919,2.919,0,0,0,7.291.262.3.3,0,1,0,6.7.338" transform="translate(182.422 248.901)" fill="#bc7e5f"/>
    <path id="Fill_45" data-name="Fill 45" d="M.263,1.24a20.113,20.113,0,0,0,2.348.146,10.494,10.494,0,0,0,2.024-.169A2.562,2.562,0,0,0,6.125.49.3.3,0,1,0,5.661.11,2.042,2.042,0,0,1,4.516.629a9.911,9.911,0,0,1-1.9.157A19.219,19.219,0,0,1,.337.644a.3.3,0,0,0-.074.6" transform="translate(183.156 253.118)" fill="#bc7e5f"/>
    <path id="Fill_46" data-name="Fill 46" d="M.241.87a17.429,17.429,0,0,0,3.073.281,8.841,8.841,0,0,0,1.607-.126A2.046,2.046,0,0,0,6.072.5.3.3,0,0,0,5.623.1a1.543,1.543,0,0,1-.815.335A8.215,8.215,0,0,1,3.314.551,16.873,16.873,0,0,1,.359.281.3.3,0,0,0,.241.87" transform="translate(182.652 255.411)" fill="#bc7e5f"/>
    <path id="Fill_47" data-name="Fill 47" d="M.185.577a9.862,9.862,0,0,0,3.341.682A2.884,2.884,0,0,0,5.047.92.3.3,0,0,0,4.725.414a2.333,2.333,0,0,1-1.2.245A9.3,9.3,0,0,1,.415.023a.3.3,0,1,0-.23.554" transform="translate(181.78 257.611)" fill="#bc7e5f"/>
    <path id="Fill_48" data-name="Fill 48" d="M.4,3.165A62.16,62.16,0,0,1,18.04.6a36.827,36.827,0,0,1,9.482,1.089,13.5,13.5,0,0,1,6.843,3.863.3.3,0,0,0,.455-.391A14.078,14.078,0,0,0,27.679,1.11,37.414,37.414,0,0,0,18.04,0,62.712,62.712,0,0,0,.2,2.6.3.3,0,0,0,.4,3.165" transform="translate(178.754 232.841)" fill="#bc7e5f"/>
    <path id="Fill_49" data-name="Fill 49" d="M.332.12A1.537,1.537,0,0,0,0,1.047a1.584,1.584,0,0,0,.377.989,3.591,3.591,0,0,0,1.6,1.04,7.313,7.313,0,0,0,2.459.4q.365,0,.745-.031l-.025-.3-.212.212a3.518,3.518,0,0,0,1.08.682,5.163,5.163,0,0,0,.613.22A.3.3,0,0,0,6.8,3.678l-.037-.011a3.765,3.765,0,0,1-1.39-.737l-.1-.1-.139.012q-.356.029-.7.029a6.12,6.12,0,0,1-2.821-.611,2.464,2.464,0,0,1-.769-.6A.98.98,0,0,1,.6,1.047.934.934,0,0,1,.812.48.3.3,0,1,0,.332.12" transform="translate(118.241 230.287)" fill="#bc7e5f"/>
    <path id="Fill_50" data-name="Fill 50" d="M.011.254,0,.406a1.253,1.253,0,0,0,.493.934,4.573,4.573,0,0,0,1.765.825,8.884,8.884,0,0,0,2.233.3c.209,0,.415-.009.614-.027a.3.3,0,1,0-.055-.6c-.178.016-.366.024-.559.024a8,8,0,0,1-2.7-.473,3.1,3.1,0,0,1-.908-.5A.668.668,0,0,1,.6.406l0-.06A.3.3,0,0,0,.011.254" transform="translate(116.762 232.855)" fill="#bc7e5f"/>
    <path id="Fill_51" data-name="Fill 51" d="M1.5.013A.9.9,0,0,0,1,.473,5.5,5.5,0,0,0,.532,2.015,48.758,48.758,0,0,0,0,9.928a.3.3,0,0,0,.6,0A60.226,60.226,0,0,1,.9,3.669a15.22,15.22,0,0,1,.389-2.261A3.045,3.045,0,0,1,1.528.766a.705.705,0,0,1,.1-.148L1.663.592l.008,0A.3.3,0,0,0,1.5.013" transform="translate(154.445 159.799)" fill="#bc7e5f"/>
    <path id="Fill_52" data-name="Fill 52" d="M2.9,0,2.833,0a.844.844,0,0,0-.562.247,3.428,3.428,0,0,0-.752,1.235C.817,3.209.18,6.527,0,11.66a.3.3,0,0,0,.6.021A41.381,41.381,0,0,1,1.614,3.14a8.672,8.672,0,0,1,.735-2.011A1.791,1.791,0,0,1,2.673.691C2.766.608,2.82.6,2.833.6h0A.3.3,0,0,0,2.9,0" transform="translate(153.059 155.488)" fill="#bc7e5f"/>
    <path id="Fill_53" data-name="Fill 53" d="M5.3,13.334q.016-.265.034-.543.068-1.1.067-2.112a22.18,22.18,0,0,0-1.216-7.77A7.725,7.725,0,0,0,3.042.8,2.8,2.8,0,0,0,2.419.223,1.26,1.26,0,0,0,1.742,0a.921.921,0,0,0-.485.138,1.164,1.164,0,0,0-.407.5A5.878,5.878,0,0,0,.431,2.161,61.34,61.34,0,0,0,0,10.875c0,3.08.079,6.493.175,9.746.043,1.451.052,2.752.052,3.923,0,.765,0,1.475,0,2.137a33.98,33.98,0,0,0,.148,3.871A7.115,7.115,0,0,0,1.2,33.335a.3.3,0,0,0,.519-.3A6.514,6.514,0,0,1,.967,30.48a33.444,33.444,0,0,1-.144-3.8c0-.659,0-1.369,0-2.137,0-1.174-.008-2.481-.052-3.941C.679,17.353.6,13.946.6,10.875c0-2.752.064-5.234.233-7.082a15.48,15.48,0,0,1,.335-2.24A3.428,3.428,0,0,1,1.388.9.624.624,0,0,1,1.571.649.315.315,0,0,1,1.742.6a.67.67,0,0,1,.352.127,3.159,3.159,0,0,1,.881,1.029C3.911,3.315,4.8,6.394,4.8,10.679q0,.994-.066,2.074c-.012.184-.023.367-.034.545a.3.3,0,1,0,.6.035" transform="translate(156.247 153.263)" fill="#bc7e5f"/>
    <path id="Fill_54" data-name="Fill 54" d="M.214.587l.007,0A.7.7,0,0,1,.409.87,6.287,6.287,0,0,1,.8,2.308a50,50,0,0,1,.487,7.62.3.3,0,0,0,.6,0,60.736,60.736,0,0,0-.3-6.326,15.837,15.837,0,0,0-.407-2.356A3.609,3.609,0,0,0,.88.473.9.9,0,0,0,.386.013.3.3,0,0,0,.214.587" transform="translate(156.714 159.799)" fill="#bc7e5f"/>
    <path id="Fill_55" data-name="Fill 55" d="M.33.6h0C.347.6.4.608.494.692a2.928,2.928,0,0,1,.6,1.018c.655,1.6,1.3,4.885,1.475,9.973a.3.3,0,0,0,.6-.021A41.9,41.9,0,0,0,2.133,2.99,9.249,9.249,0,0,0,1.34.834,2.349,2.349,0,0,0,.9.247.849.849,0,0,0,.335,0L.27,0A.3.3,0,0,0,.33.6" transform="translate(156.817 155.488)" fill="#bc7e5f"/>
    <path id="Fill_56" data-name="Fill 56" d="M17.98,7.535a14.77,14.77,0,0,0-3.339-5.261A7.283,7.283,0,0,0,9.6,0,7.332,7.332,0,0,0,5.354,1.484C2.693,3.369,1.382,6.893.7,10.638A61.168,61.168,0,0,0,0,21.244c0,.293,0,.574,0,.841a.3.3,0,0,0,.6,0c0-.268,0-.548,0-.841a60.67,60.67,0,0,1,.7-10.5c.66-3.683,1.963-7.056,4.4-8.77A6.732,6.732,0,0,1,9.6.6a6.689,6.689,0,0,1,4.624,2.105,14.174,14.174,0,0,1,3.2,5.045.3.3,0,0,0,.56-.215" transform="translate(148.449 73.462)" fill="#352047"/>
    <path id="Fill_57" data-name="Fill 57" d="M.528,2.175A5.305,5.305,0,0,1,4.557.6a7,7,0,0,1,5.656,2.783.3.3,0,1,0,.484-.355A7.6,7.6,0,0,0,4.557,0,5.89,5.89,0,0,0,.072,1.784a.3.3,0,1,0,.455.391" transform="translate(151.293 75.94)" fill="#352047"/>
    <path id="Fill_58" data-name="Fill 58" d="M.576,2.9a3.683,3.683,0,0,1,2.03-1.653A8.574,8.574,0,0,1,5.787.6,4.636,4.636,0,0,1,7.22.8.3.3,0,1,0,7.41.229,5.226,5.226,0,0,0,5.787,0,9.157,9.157,0,0,0,2.374.695a4.239,4.239,0,0,0-2.35,1.97A.3.3,0,0,0,.576,2.9" transform="translate(149.825 78.46)" fill="#352047"/>
    <path id="Fill_59" data-name="Fill 59" d="M2.771.154A18.577,18.577,0,0,0,0,9.115c0,3.461,1.412,7.32,5.5,11.475a.3.3,0,1,0,.428-.421C1.922,16.089.6,12.408.6,9.115A18,18,0,0,1,3.3.445.3.3,0,1,0,2.771.154" transform="translate(117.796 126.331)" fill="#352047"/>
    <path id="Fill_60" data-name="Fill 60" d="M27.409.045A5.2,5.2,0,0,0,25,3.662c-.469,2.186-.3,4.822-1.186,7.693S21,17.344,16.277,20.49a15.175,15.175,0,0,0-4.608,4.4,8.183,8.183,0,0,0-1.288,4.462c0,2.629,1.1,5.266,2.164,8.069a25.176,25.176,0,0,1,2.125,9.026,14.745,14.745,0,0,1-.105,1.765,13.6,13.6,0,0,1-2.713,6.362c-2.1,2.906-5.042,5.494-7.477,8.248S0,68.522,0,72.159a12.676,12.676,0,0,0,1.458,5.654A.3.3,0,0,0,2,77.547,12.077,12.077,0,0,1,.6,72.159a11.034,11.034,0,0,1,2.061-6.171c1.879-2.842,4.762-5.415,7.3-8.193s4.745-5.778,5.2-9.512a15.353,15.353,0,0,0,.109-1.837,25.732,25.732,0,0,0-2.164-9.24c-1.076-2.811-2.128-5.4-2.125-7.855a7.577,7.577,0,0,1,1.2-4.144,14.583,14.583,0,0,1,4.432-4.218A20.036,20.036,0,0,0,23.033,14.6c1.854-3.14,2.021-6.115,2.249-8.558a12.8,12.8,0,0,1,.586-3.228A4.265,4.265,0,0,1,27.722.556a.3.3,0,0,0-.313-.511" transform="translate(121.234 67.725)" fill="#352047"/>
    <path id="Fill_61" data-name="Fill 61" d="M0,.669A2.527,2.527,0,0,0,.841,2.592a2.776,2.776,0,0,0,1.845.684,2.89,2.89,0,0,0,1.8-.625A3.435,3.435,0,0,0,5.651.745.6.6,0,0,0,4.487.454,2.231,2.231,0,0,1,3.739,1.71a1.687,1.687,0,0,1-1.052.366A1.584,1.584,0,0,1,1.639,1.7,1.321,1.321,0,0,1,1.2.669a.6.6,0,0,0-1.2,0" transform="translate(161.561 95.085)" fill="#0a0b09"/>
    <path id="Fill_62" data-name="Fill 62" d="M.068.491a2.876,2.876,0,0,0,2.213,1.1A3.139,3.139,0,0,0,4.5.581.3.3,0,1,0,4.076.157,2.538,2.538,0,0,1,2.281.993,2.276,2.276,0,0,1,.531.109.3.3,0,1,0,.068.491" transform="translate(154.021 102.124)" fill="#bc7e5f"/>
    <path id="Fill_63" data-name="Fill 63" d="M.015.464a3.308,3.308,0,0,0,3.06,2.3A3.684,3.684,0,0,0,6.276.437.3.3,0,0,0,5.741.164a3.088,3.088,0,0,1-2.666,2A2.712,2.712,0,0,1,.585.274a.3.3,0,1,0-.569.19" transform="translate(153.16 106.938)" fill="#cc656a"/>
    <path id="Fill_64" data-name="Fill 64" d="M7.977,3.989A3.989,3.989,0,1,1,3.988,0,3.989,3.989,0,0,1,7.977,3.989" transform="translate(160.854 99.949)" fill="#e8838b"/>
    <path id="Fill_65" data-name="Fill 65" d="M.39.777A4.163,4.163,0,0,1,1.63.6,4.23,4.23,0,0,1,4.689,1.8a.3.3,0,0,0,.436-.412A4.821,4.821,0,0,0,1.63,0,4.763,4.763,0,0,0,.21.205.3.3,0,0,0,.39.777" transform="translate(161.861 88.523)" fill="#643d7b"/>
  </g>
</svg>
