<svg xmlns="http://www.w3.org/2000/svg" xmlns:xlink="http://www.w3.org/1999/xlink" width="507" height="543.266" viewBox="0 0 507 543.266">
  <defs>
    <radialGradient id="radial-gradient" cx="0.5" cy="0.5" r="2.213" gradientTransform="translate(0.419 0) scale(0.162 1)" gradientUnits="objectBoundingBox">
      <stop offset="0" stop-color="#7cb0e8"/>
      <stop offset="1" stop-color="#b8e5fc"/>
    </radialGradient>
    <linearGradient id="linear-gradient" x1="0.296" y1="0.983" x2="0.659" y2="-0.019" gradientUnits="objectBoundingBox">
      <stop offset="0" stop-color="#f8ded1"/>
      <stop offset="1" stop-color="#fff3f4"/>
    </linearGradient>
    <linearGradient id="linear-gradient-2" x1="0.705" y1="0.983" x2="0.345" y2="-0.008" gradientUnits="objectBoundingBox">
      <stop offset="0" stop-color="#f8ded1"/>
      <stop offset="1" stop-color="#ffedef"/>
    </linearGradient>
    <linearGradient id="linear-gradient-3" x1="0.435" y1="0.917" x2="0.545" y2="-0.019" gradientUnits="objectBoundingBox">
      <stop offset="0" stop-color="#ffefee"/>
      <stop offset="1" stop-color="#ffe8ea"/>
    </linearGradient>
    <linearGradient id="linear-gradient-4" x1="0.067" y1="0.987" x2="0.881" y2="0.007" gradientUnits="objectBoundingBox">
      <stop offset="0" stop-color="#fff7f7"/>
      <stop offset="1" stop-color="#ffe2e4"/>
    </linearGradient>
    <linearGradient id="linear-gradient-5" x1="0.502" y1="0.704" x2="0.496" y2="-0.33" gradientUnits="objectBoundingBox">
      <stop offset="0" stop-color="#ffecec"/>
      <stop offset="1" stop-color="#ffe5e7"/>
    </linearGradient>
    <linearGradient id="linear-gradient-6" x1="0.5" y1="0.155" x2="0.5" y2="0.81" gradientUnits="objectBoundingBox">
      <stop offset="0" stop-color="#3d49bf"/>
      <stop offset="1" stop-color="#31409b"/>
    </linearGradient>
    <linearGradient id="linear-gradient-7" x1="0.495" y1="0.531" x2="0.363" y2="1.25" xlink:href="#linear-gradient-6"/>
    <linearGradient id="linear-gradient-8" x1="0.5" y1="0.454" x2="0.5" y2="1.397" gradientUnits="objectBoundingBox">
      <stop offset="0" stop-color="#b8e5fc"/>
      <stop offset="1" stop-color="#7cb0e8"/>
    </linearGradient>
    <linearGradient id="linear-gradient-9" x1="0.5" y1="0.283" x2="0.5" y2="1.311" gradientUnits="objectBoundingBox">
      <stop offset="0" stop-color="#252c63"/>
      <stop offset="1" stop-color="#1e254c"/>
    </linearGradient>
    <linearGradient id="linear-gradient-10" x1="-0.009" y1="0.035" x2="0.596" y2="0.622" gradientUnits="objectBoundingBox">
      <stop offset="0" stop-color="#b8e5fc"/>
      <stop offset="0.588" stop-color="#96c7f1"/>
      <stop offset="1" stop-color="#7cb0e8"/>
    </linearGradient>
    <linearGradient id="linear-gradient-11" x1="0.359" y1="0.254" x2="0.6" y2="0.893" xlink:href="#linear-gradient-6"/>
    <linearGradient id="linear-gradient-12" x1="0.794" y1="-0.007" x2="0.478" y2="0.646" xlink:href="#linear-gradient-10"/>
    <linearGradient id="linear-gradient-13" x1="0.5" y1="0.269" x2="0.5" y2="0.807" gradientUnits="objectBoundingBox">
      <stop offset="0" stop-color="#f66f6c"/>
      <stop offset="1" stop-color="#ea5460"/>
    </linearGradient>
  </defs>
  <g id="yoga_class_2" data-name="yoga class 2" transform="translate(0 -0.734)">
    <path id="Rectangle" d="M507,0V507H0Z" transform="translate(0 37)" fill="#fff"/>
    <g id="Group" transform="translate(23)">
      <path id="Path" d="M444.983,288.885c-6.539-34.255-9.352-69.4-7.122-104.45,1.09-17.009,3.827-33.545,6.741-50.228,2.813-16.062,5.525-32.716,4.055-49.163-1.419-15.648-6.513-30.143-15.916-41.561a71.468,71.468,0,0,0-30.97-21.446c-28.258-10.265-58.164-1.331-85.611,8.135-14.319,4.94-28.638,10.146-43.388,13.1a98.54,98.54,0,0,1-39.688.059c-24.685-5.325-47.443-18.37-70.734-28.753C139.136,4.228,114.528-3.463,89.564,1.595,66.882,6.18,46.4,21.651,31.451,41.766,15.409,63.33,5.119,89.983,1.622,118.232c-4.131,33.545-.076,67.652,8.82,99.717,4.46,16.122,10.315,31.533,16.423,46.886,5.626,14.14,11.481,29.048,12.621,44.785,1.115,15.619-3.193,30.025-8.287,44.312-5.119,14.376-10.492,28.516-12.14,44.135-2.813,26.712,5.626,54.281,20.579,74.426a77.883,77.883,0,0,0,27.244,23.428c13.255,6.626,27.625,9.14,41.994,8.874,29.348-.532,57.277-11.832,86.168-16.122,11.075-1.627,22.328-2.248,33.4-.592,24.634,6.833,49.471,13.016,74.662,16.3a325.688,325.688,0,0,0,63.511,1.864c25.926-1.745,52.816-12.01,70.683-35.024,16.828-21.683,23.341-51.678,23.367-80.4C460.721,356.063,451.395,322.489,444.983,288.885Z" transform="translate(0.025 0.734)" fill="#af3ec2"/>
      <path id="Path-2" data-name="Path" d="M112.627,16.713c-3.548-1.446-7.1-2.841-10.644-4.21C78.768,3.625,54.159-2.97,29.2,1.368A91,91,0,0,0,0,12V224.321H112.627Z" transform="translate(60.394 73.002)" fill="#b944cc"/>
      <path id="Path-3" data-name="Path" d="M112.652,3.635c-28-8.345-57.53-.786-84.7,7.254C18.678,13.629,9.4,16.47,0,18.829V209.341H112.627V3.635Z" transform="translate(288.233 87.982)" fill="#b944cc"/>
      <path id="Shape" d="M417,216.637H3.066c-.039-.085-.078-.17-.116-.25l-.044-.095L2.9,216.28l-.026-.055,0-.007-.032-.068-.007-.015,0-.008,0-.007,0-.008,0,0c-.041-.085-.085-.177-.131-.28-.33-.726-.675-1.48-.977-2.142l-.009-.02-.194-.426-.152-.332-.013-.029-.242-.529-.019-.041C.724,211.53.356,210.725,0,209.941H30.843V3.983c.227-.142.5-.315.733-.465l.013-.008.006,0,.056-.036.005,0,.12-.077.115-.074.008-.005.125-.079.09-.058.113-.072.016-.01.161-.1.01-.006.025-.016a.133.133,0,0,1,.038-.025.137.137,0,0,0,.039-.025c.188-.113.381-.233.485-.3l.033-.021.066-.04.008-.005.028-.017.049-.031.06-.037c.237-.146.53-.327.816-.491a.709.709,0,0,0,.089-.05c.027-.016.062-.037.089-.05.51-.322,1.013-.621,1.495-.888a1.008,1.008,0,0,1,.112-.062l.013-.006a.979.979,0,0,0,.1-.059c.5-.3,1.005-.579,1.521-.862V17.349H145.5V4.109c2.026.806,3.881,1.564,6.481,2.628l.21.086V210.018H260.177V23.513c7.832-1.833,15.469-4.021,22.556-6.113h92.124V6.874c.177.048.375.1.7.2l.01,0,.019.005.078.023.019.005.516.146h.026l.013,0c.412.114.891.249,1.355.4l.063.02.071.022.073.023.059.019.037.012.037.012c.585.181,1.113.346,1.637.528h.025c.406.126.8.267,1.325.454l.031.011c.2.073.412.148.621.22V209.966h34.442c.058.4.114.784.233,1.562v.005l.006.042.005.035.006.04c.063.408.147.968.229,1.537a.47.47,0,0,0,.013.1.5.5,0,0,1,.013.1c.069.5.148,1.022.233,1.576v.01l.025.167,0,.012.021.139.023.156,0,.009.024.159c.057.375.113.761.15,1.018Zm-150.11-55.4h0v48.725H374.908V161.241H266.893Zm-229.41,0h0v48.725H145.5V161.241Zm229.41-46.315h0v41.42H374.908v-41.42H266.893Zm-229.41,0v41.42H145.5v-41.42Zm229.41-46.341h0v41.42H374.908V68.585H266.893Zm-229.41,0v41.42H145.5V68.585ZM266.893,22.27h0V63.69H374.908V22.27H266.893Zm-229.41,0V63.69H145.5V22.27Z" transform="translate(24.178 84.262)" fill="#d6aedc"/>
      <path id="Shape-2" data-name="Shape" d="M382.384,125.986h-3.091V107.444h-45.34v18.541h-3.092V107.444h-45.34v18.541h-3.092V107.444H237.09v18.541H234V107.444H188.658v18.541h-3.092V107.444H140.226v18.541h-3.092V107.444H91.795v18.541H88.7V107.444H43.363v18.541H40.271V107.444H0l.1-.428L.1,107,.1,107l.008-.034v-.005l.029-.129.005-.023.007-.032v-.006l.023-.1c.18-.8.356-1.574.535-2.293H17.36V85.985H6.868l.1-.251.01-.024.037-.093c.046-.112.091-.225.135-.338l0-.009.043-.109.038-.095c.278-.7.575-1.443.876-2.15H40.271V64.527H15.384c.376-1.078.7-2.081.988-3.069h.938v-3.45A60.109,60.109,0,0,0,19.49,40H40.245V21.611H15.967c-.418-1.266-.738-2.213-1.04-3.069h2.407V0h3.092V18.542H65.767V0h3.091V18.542H114.2V0h3.066V18.542H162.6V0H165.7V18.542H210.96V0h3.092V18.542h45.339V0h3.091V18.542h45.34V0h3.091V18.542h45.34V0h3.092V18.542h45.34V0h3.092V18.542h16.8l.024.106.04.184.03.142.006.031,0,.012.023.1.017.082.011.049c.049.23.1.461.149.685l.016.073.011.046.012.052.039.17.03.132.04.176.021.092,0,.014,0,.008.022.1c.062.271.123.541.185.812H382.283V40h45.339V31.63l.281,1.144c.355,1.447.714,2.911,1.1,4.5l.022.091q.7,2.863,1.407,5.732H407.8v18.39h26.966c.1.434.174.79.259,1.19l0,.013.006.03.012.056,0,.005.023.107.023.11.006.033.014.067,0,.009.014.067.011.053.015.072.027.129.006.03.032.152,0,.016.008.039,0,.022.032.154.044.207.005.027c.034.159.069.322.1.481h-4.713V82.941h8.033c.041.326.09.7.19,1.428.1.769.167,1.244.216,1.642H407.905v18.364h32.769c.025.989.025,1.995.025,2.967v.1h-9.884v18.54h-3.091V107.444h-45.34v18.541ZM359.372,86.011V104.4h45.34V86.011Zm-48.431,0V104.4H356.28V86.011Zm-48.406,0V104.4h45.339V86.011Zm-48.432,0h0V104.4h45.339V86.011H214.1Zm-48.406,0V104.4h45.34V86.011Zm-48.432,0V104.4H162.6V86.011Zm-48.407,0V104.4H114.2V86.011Zm-48.431,0V104.4H65.767V86.011ZM382.283,64.552h0V82.941h45.339V64.553H382.283Zm-48.406,0h0V82.941h45.339V64.553H333.877Zm-48.432,0V82.941h45.339V64.553Zm-48.406,0V82.941h45.34V64.553Zm-48.432,0h0V82.941h45.34V64.553h-45.34Zm-48.406,0V82.941H185.54V64.553Zm-48.432,0V82.941h45.339V64.553Zm-48.432,0V82.941H88.677V64.553H43.338ZM359.372,43.094v18.39h45.34V43.094Zm-48.431,0v18.39H356.28V43.094Zm-48.406,0v18.39h45.339V43.094Zm-48.432,0h0v18.39h45.339V43.094H214.1Zm-48.406,0v18.39h45.34V43.094Zm-48.432,0v18.39H162.6V43.094Zm-48.407,0v18.39H114.2V43.094Zm-48.431,0v18.39H65.767V43.094ZM333.877,21.636h0V40.025h45.339V21.636H333.877Zm-48.432,0V40.025h45.339V21.636Zm-48.406,0V40.025h45.34V21.636Zm-48.432,0h0V40.025h45.34V21.636h-45.34Zm-48.406,0V40.025H185.54V21.636Zm-48.432,0V40.025h45.339V21.636Zm-48.432,0V40.025H88.677V21.636H43.338Z" transform="translate(20.123 300.747)" fill="#d6aedc"/>
      <path id="Path-4" data-name="Path" d="M0,.152c.887,18.82,8.769,37.26,21.035,51.439A75.889,75.889,0,0,0,48.28,71.68c13.255,5.682,27.625,7.838,41.994,7.609,29.348-.457,57.277-10.146,86.168-13.824,11.075-1.4,22.328-1.928,33.4-.507,24.634,5.859,49.471,11.16,74.662,13.976a379.459,379.459,0,0,0,63.511,1.6c25.927-1.5,52.816-10.3,70.683-30.031C431.348,36.525,438.191,18.516,440.8,0,346.7.1,84.115.406,0,.152Z" transform="translate(18.628 426.58)" fill="#3b47b9"/>
      <g id="Group-2" data-name="Group" transform="translate(46.379 121.192)">
        <path id="Path-5" data-name="Path" d="M189.356,1.091A3.527,3.527,0,0,0,186.821,0H33.036A3.429,3.429,0,0,0,30.5,1.091L.546,32.264a1.968,1.968,0,0,0,1.419,3.323H217.893a1.968,1.968,0,0,0,1.419-3.323Z" transform="translate(83.975 316.827)" fill="#1e254c"/>
        <path id="Path-6" data-name="Path" d="M189.381,1.091A3.527,3.527,0,0,0,186.847,0H33.036A3.429,3.429,0,0,0,30.5,1.091L.546,32.264a1.968,1.968,0,0,0,1.419,3.323H217.893a1.968,1.968,0,0,0,1.419-3.323Z" transform="translate(82.429 311.754)" fill="url(#radial-gradient)"/>
        <g id="Group-3" data-name="Group" transform="translate(112.019)">
          <path id="Path-7" data-name="Path" d="M11.278,4.058.355,18.339,0,26.227s1.394,9.461,2.534,9.664,4.917-1.852,8.262-.659S19.54,37.895,21.643,36.7c2.078-1.192,6.412-.634,8.262-1.268s3.649-5.606,3.649-5.606-3.32-15.041-3.421-15.244S23.57,8.421,23.468,8.117,22.3,2.08,22.3,2.08A47.131,47.131,0,0,0,17.056,0C16.448-.025,11.278,4.058,11.278,4.058Z" transform="translate(60.267 42.637)" fill="#1e254c"/>
          <path id="Path-8" data-name="Path" d="M5.792,15.228S8.479,11.348,7.059,4.246C5.488-3.617.293,1.709.014,2.445S3.765,14.214,3.765,14.214Z" transform="translate(98.269 77.707)" fill="#7cb0e8"/>
          <path id="Path-9" data-name="Path" d="M1.357,18.846S-.468,16.715.115,12.276,5.919,0,5.919,0l2.23,12.15Z" transform="translate(49.026 74.191)" fill="#7cb0e8"/>
          <path id="Path-10" data-name="Path" d="M35.988,7.077S25.445,17.2,17.994,13.6C11.227,10.349,3.244,12,0,5.453L20.427,0,34.442,1.015Z" transform="translate(59.279 118.731)" fill="#7cb0e8"/>
          <path id="Path-11" data-name="Path" d="M28.055,86.14a43.166,43.166,0,0,1-6.513-8.649C18.8,72.621,12.7,57.808,12.114,55.906S23.494,42.032,26.991,38.2c3.7-4.033,10.594-15.143,13.838-16.842,3.295-1.725,1.293-17.451,1.039-19.784s-1.419-1.978-1.8.431-1.546,15.041-4.08,17.375c-5.17,4.692-12.773,9.562-15.966,12.3S0,47.51,0,53.7c0,5.327,5.018,18.415,8.642,25.39,4.283,8.294,15.764,24.223,15.764,24.223l9.352-10.12Z" transform="translate(35.126 0.124)" fill="url(#linear-gradient)"/>
          <path id="Path-12" data-name="Path" d="M14.646,86.14a43.166,43.166,0,0,0,6.513-8.649C23.9,72.621,30,57.808,30.587,55.906S19.208,42.032,15.71,38.2C12.01,34.169,5.117,23.059,1.873,21.36-1.422,19.635.58,3.909.834,1.575s1.419-1.978,1.8.431,1.546,15.041,4.08,17.375c5.17,4.692,12.773,9.562,15.966,12.3S42.7,47.51,42.7,53.7c0,5.327-5.018,18.415-8.642,25.39C29.776,87.383,18.3,103.312,18.3,103.312L8.944,93.192Z" transform="translate(75.729 0.124)" fill="url(#linear-gradient-2)"/>
          <path id="Path-13" data-name="Path" d="M53.822,0S34.662,12.073,26.679,16.259,1.969,30.234.626,34.9C-.743,39.569-.743,45.377,9.977,46.468s38.117-2.892,43.87-2.308S66.291,48.116,67.558,52.2,70.549,65.339,72.5,65.339s2.433-1.776,1.951-5.276,2.636-25.187-2.991-25.593c-5.652-.38-6.336,2.055-12.849,1.649-6.513-.38-29.753-3.094-29.348-3.45.38-.355,25.039-5,33.53-8.751A110.216,110.216,0,0,0,75.06,17.755l8.591-7.533Z" transform="translate(0.16 153.1)" fill="url(#linear-gradient-3)"/>
          <path id="Path-14" data-name="Path" d="M15.941.989s1.951,9.943,0,11.693S9.985,14.914,7.7,15.143c-3.016.3-.431,7.584-2.56,12.555s-3.8,9.74-1.647,12.555,6.868,11.794,6.158,18.212S4.08,78.325,0,83.6c0,0,17.512,13.621,18.475,18.313S21.238,163.4,22.2,171.768s-3.117,59.784-2.712,66.81c.38,7-4.663,14.61-1.546,15.777s19.058,1.953,17.715,0S26.205,245,26.129,241.317c-.3-11.794,8.11-21.991,10.061-40.228,2.838-26.506-2.129-36.094,2.2-50.906,2.965-10.146,8.059-37.387,7.679-56.487-.38-19.074-7.806-24.324-8.262-35.612C37.382,46.8,43.464,43.221,42.3,36.347s-3.6-22.118-3.6-22.118-8.845.558-9.884-3.069S27.65,0,27.65,0Z" transform="translate(53.982 69.549)" fill="url(#linear-gradient-4)"/>
          <path id="Path-15" data-name="Path" d="M26.406,8.9C24.759-.278,13.38,0,13.38,0S2-.2.4,9.005c-1.343,7.812,1.14,7.127.608,12.327C.505,26.2,6.79,36.729,13.481,36.7c6.716-.025,12.925-10.577,12.393-15.447C25.291,16.057,27.8,16.716,26.406,8.9Z" transform="translate(63.589 39.289)" fill="url(#linear-gradient-5)"/>
          <path id="Path-16" data-name="Path" d="M46.049,25.314C45.8,12.784,42.5,6.24,40.144,0a1.5,1.5,0,0,0-.2.1C26.205,7.229,7.172.1,7.147.1,5.2,5.885,2.458,12.023,0,15.193c0,0,17.512,13.621,18.475,18.313S21.238,94.99,22.2,103.36c.634,5.479-.887,29.372-1.926,47.229a23.941,23.941,0,0,0,11.709-.152,78.138,78.138,0,0,0,4.156-17.78c2.838-26.506-2.129-36.094,2.2-50.906C41.335,71.68,46.429,44.413,46.049,25.314Z" transform="translate(53.982 137.881)" fill="url(#linear-gradient-6)"/>
          <path id="Path-17" data-name="Path" d="M47.511,35.1c-6.108-.71-18.475-2.232-18.273-2.435.38-.355,25.039-5,33.53-8.751a110.215,110.215,0,0,0,12.266-6.164l8.591-7.533L53.822,0S34.662,12.073,26.679,16.259,1.969,30.234.626,34.9C-.743,39.569-.743,45.377,9.977,46.468c7.122.71,26.484-1.192,37.1-2.105A16.414,16.414,0,0,0,47.511,35.1Z" transform="translate(0.16 153.1)" fill="url(#linear-gradient-7)"/>
          <path id="Path-18" data-name="Path" d="M35.709,0a1.5,1.5,0,0,0-.2.1C21.77,7.229,2.737.1,2.712.1,1.9,2.46.988,4.9,0,7.153c6.767,3.12,24.076,9.41,38.345-.3C37.458,4.363,36.545,2.156,35.709,0Z" transform="translate(58.417 137.906)" fill="#5766ce"/>
          <path id="Path-19" data-name="Path" d="M15.409,7.635c.279-2.714.507-5.25.634-7.635-.127.127-.279.254-.405.406-1.115,1.065-2.281,2.08-3.5,3.069-.076.051-.735.558-.684.533-.2.152-.405.3-.634.457-.634.457-1.267.913-1.9,1.344a57.662,57.662,0,0,1-7.806,4.413c-.279.127-.507.228-.71.33C.279,12.91.127,15.295,0,17.6a59.807,59.807,0,0,0,15.232-8.5C15.308,8.6,15.358,8.117,15.409,7.635Z" transform="translate(74.738 262.953)" fill="#b8e5fc"/>
          <path id="Path-20" data-name="Path" d="M7.375.989C4.308.609,1.521.228,0,0A3.248,3.248,0,0,0,.431,1.547c.456.812.887,1.623,1.293,2.46.2.406.38.837.583,1.268.051.127.1.228.127.279.076.178.152.38.228.558a41.174,41.174,0,0,1,1.647,5.1c.1.431.2.862.3,1.319,2.23-.178,4.384-.38,6.412-.558A45.843,45.843,0,0,0,7.375.989Z" transform="translate(30.539 186.023)" fill="#b8e5fc"/>
          <path id="Path-21" data-name="Path" d="M14.167,4.008c.3-1.294.608-2.613.862-4.008A50.4,50.4,0,0,1,.177,7.99C.127,8.979.051,9.968,0,10.932A54.016,54.016,0,0,0,14.167,4.008Z" transform="translate(74.383 275.737)" fill="#7cb0e8"/>
          <path id="Path-22" data-name="Path" d="M3.219.406C2.18.279,1.09.152,0,0A48.229,48.229,0,0,1,3.8,10.45c.963-.076,1.875-.178,2.737-.228A50.318,50.318,0,0,0,3.219.406Z" transform="translate(40.119 187.266)" fill="#7cb0e8"/>
          <path id="Path-23" data-name="Path" d="M51.192,9.03C48.733,6.595,48.379.178,48.379.178s-4.562,9.74-9.352,9.334a16.589,16.589,0,0,1-1.875-.254c-10.239,10.7-21.948,1.015-22.226.761H14.9a4.488,4.488,0,0,1-4.334-1.547A45.1,45.1,0,0,1,4.762,0s0,6.417-2.357,8.979C-.459,12.1-.1,16.132.2,18.846A60.189,60.189,0,0,1,5.117,24.4,7.152,7.152,0,0,1,6.41,30.31a8.024,8.024,0,0,0-.127,3.931C7.17,37.159,9.806,42.359,9.1,50.019c3.32,3.5,12.342.3,16.473-.2,7.147-.862,16.828,1.243,19.54,1.826.532-8.167,2.458-13.088,2.053-18.567a7.993,7.993,0,0,1,.3-2.892,1.577,1.577,0,0,1,.076-.254c.786-3.45,6.361-11.16,6.361-11.16C54.056,16.03,54.182,11.972,51.192,9.03Z" transform="translate(50.157 74.166)" fill="url(#linear-gradient-8)"/>
          <g id="Group-4" data-name="Group" transform="translate(51.701 77.108)">
            <ellipse id="Oval" cx="1.293" cy="1.294" rx="1.293" ry="1.294" transform="translate(12.469 34.064)" fill="#fff"/>
            <path id="Path-24" data-name="Path" d="M1.749,1.294A1.3,1.3,0,0,0,.456,0,1.325,1.325,0,0,0,0,.076C.152.862.3,1.7.405,2.562H.456A1.261,1.261,0,0,0,1.749,1.294Z" transform="translate(7.122 38.782)" fill="#fff"/>
            <path id="Path-25" data-name="Path" d="M2.154,1.294A1.3,1.3,0,0,0,.862,0,1.3,1.3,0,0,0,0,.33,4.836,4.836,0,0,0,.2,1.7c.076.254.177.533.279.837a1.955,1.955,0,0,0,.38.051A1.3,1.3,0,0,0,2.154,1.294Z" transform="translate(4.562 29.6)" fill="#fff"/>
            <path id="Path-26" data-name="Path" d="M1.267,1.826A1.3,1.3,0,0,0,2.56.533,1.977,1.977,0,0,0,2.458,0,4.224,4.224,0,0,1,.025.583H0A1.234,1.234,0,0,0,1.267,1.826Z" transform="translate(37.458 5.961)" fill="#fff"/>
            <ellipse id="Oval-2" data-name="Oval" cx="1.293" cy="1.294" rx="1.293" ry="1.294" transform="translate(4.156 10.197)" fill="#fff"/>
            <path id="Path-27" data-name="Path" d="M2.585,1.42V1.294A1.293,1.293,0,1,0,0,1.294a1.437,1.437,0,0,0,.076.457c.431-.076.836-.152,1.216-.2A11.146,11.146,0,0,1,2.585,1.42Z" transform="translate(22.733 45.352)" fill="#fff"/>
            <path id="Path-28" data-name="Path" d="M1.293,0A1.293,1.293,0,0,0,0,1.268a22.415,22.415,0,0,0,2.56-.254A1.33,1.33,0,0,0,1.293,0Z" transform="translate(13.229 47.406)" fill="#fff"/>
            <ellipse id="Oval-3" data-name="Oval" cx="1.293" cy="1.294" rx="1.293" ry="1.294" transform="translate(6.691 16.766)" fill="#fff"/>
            <ellipse id="Oval-4" data-name="Oval" cx="1.293" cy="1.294" rx="1.293" ry="1.294" transform="translate(18.095 17.654)" fill="#fff"/>
            <ellipse id="Oval-5" data-name="Oval" cx="1.293" cy="1.294" rx="1.293" ry="1.294" transform="translate(18.095 38.782)" fill="#fff"/>
            <ellipse id="Oval-6" data-name="Oval" cx="1.293" cy="1.294" rx="1.293" ry="1.294" transform="translate(21.035 27.038)" fill="#fff"/>
            <path id="Path-29" data-name="Path" d="M1.268,2.156a1.327,1.327,0,0,0,1.216-.837A20.245,20.245,0,0,1,.33,0,1.3,1.3,0,0,0,0,.862,1.246,1.246,0,0,0,1.268,2.156Z" transform="translate(13.938 7.762)" fill="#fff"/>
            <ellipse id="Oval-7" data-name="Oval" cx="1.293" cy="1.294" rx="1.293" ry="1.294" transform="translate(44.098 10.729)" fill="#fff"/>
            <ellipse id="Oval-8" data-name="Oval" cx="1.293" cy="1.294" rx="1.293" ry="1.294" transform="translate(11.177 23.716)" fill="#fff"/>
            <path id="Path-30" data-name="Path" d="M0,1.015A1.3,1.3,0,0,0,1.293,2.308a1.365,1.365,0,0,0,.76-.254C1.546,1.4,1.014.71.507,0A1.216,1.216,0,0,0,0,1.015Z" transform="translate(5.424 1.522)" fill="#fff"/>
            <path id="Path-31" data-name="Path" d="M1.293,0A1.3,1.3,0,0,0,0,1.294,1.314,1.314,0,0,0,1.166,2.587,8.736,8.736,0,0,1,1.47.964,1.577,1.577,0,0,1,1.546.71,5.512,5.512,0,0,1,1.723.1.832.832,0,0,0,1.293,0Z" transform="translate(44.453 26.303)" fill="#fff"/>
            <ellipse id="Oval-9" data-name="Oval" cx="1.293" cy="1.294" rx="1.293" ry="1.294" transform="translate(28.638 40.634)" fill="#fff"/>
            <ellipse id="Oval-10" data-name="Oval" cx="1.293" cy="1.294" rx="1.293" ry="1.294" transform="translate(27.346 32.771)" fill="#fff"/>
            <path id="Path-32" data-name="Path" d="M1.216,0A1.288,1.288,0,0,0,0,.862q1.293.152,2.509.3A1.315,1.315,0,0,0,1.216,0Z" transform="translate(33.225 46.113)" fill="#fff"/>
            <ellipse id="Oval-11" data-name="Oval" cx="1.293" cy="1.294" rx="1.293" ry="1.294" transform="translate(25.876 14.534)" fill="#fff"/>
            <path id="Path-33" data-name="Path" d="M1.6.051A1.271,1.271,0,0,0,1.293,0a1.3,1.3,0,0,0-.127,2.587C1.318,1.7,1.47.862,1.6.051Z" transform="translate(43.16 39.366)" fill="#fff"/>
            <path id="Path-34" data-name="Path" d="M0,.736c.482.507,1.014,1.116,1.6,1.776A1.292,1.292,0,1,0,0,.736Z" transform="translate(0.228 16.766)" fill="#fff"/>
            <path id="Path-35" data-name="Path" d="M1.293,0A1.3,1.3,0,0,0,0,1.294,1.257,1.257,0,0,0,.963,2.536c.507-.761.963-1.471,1.343-2.029A1.213,1.213,0,0,0,1.293,0Z" transform="translate(48.989 16.766)" fill="#fff"/>
            <path id="Path-36" data-name="Path" d="M.735,0a1.294,1.294,0,0,0,.558,2.46,1.241,1.241,0,0,0,.938-.406A8.469,8.469,0,0,0,.735,0Z" transform="translate(48.989 6.164)" fill="#fff"/>
            <ellipse id="Oval-12" data-name="Oval" cx="1.293" cy="1.294" rx="1.293" ry="1.294" transform="translate(41.868 19.353)" fill="#fff"/>
            <ellipse id="Oval-13" data-name="Oval" cx="1.293" cy="1.294" rx="1.293" ry="1.294" transform="translate(39.992 32.187)" fill="#fff"/>
            <ellipse id="Oval-14" data-name="Oval" cx="1.293" cy="1.294" rx="1.293" ry="1.294" transform="translate(36.9 14.128)" fill="#fff"/>
            <path id="Path-37" data-name="Path" d="M.71,2.359A1.3,1.3,0,0,0,2,1.065,1.358,1.358,0,0,0,1.445,0C1.014.685.532,1.42,0,2.131A1.185,1.185,0,0,0,.71,2.359Z" transform="translate(43.743 0.178)" fill="#fff"/>
            <ellipse id="Oval-15" data-name="Oval" cx="1.293" cy="1.294" rx="1.293" ry="1.294" transform="translate(36.14 38.782)" fill="#fff"/>
            <path id="Path-38" data-name="Path" d="M1.293,2.384A1.3,1.3,0,0,0,2.585,1.091,1.248,1.248,0,0,0,1.951,0,12.985,12.985,0,0,1,0,1.141,1.324,1.324,0,0,0,1.293,2.384Z" transform="translate(30.742 8.827)" fill="#fff"/>
            <ellipse id="Oval-16" data-name="Oval" cx="1.293" cy="1.294" rx="1.293" ry="1.294" transform="translate(29.475 21.585)" fill="#fff"/>
            <ellipse id="Oval-17" data-name="Oval" cx="1.293" cy="1.294" rx="1.293" ry="1.294" transform="translate(34.847 27.038)" fill="#fff"/>
          </g>
          <path id="Shape-3" data-name="Shape" d="M5.191,40.376a3.908,3.908,0,0,1-3.066-1.458A3.96,3.96,0,0,1,2.1,33.971l.007-.023.011-.031c.006-.02.013-.041.021-.06s.018-.056.028-.084l.01-.031a7.4,7.4,0,0,1,.549-1.178l.006-.011,0,0a7.635,7.635,0,0,0,.557-1.191,2.758,2.758,0,0,0-.127-1.978A12.022,12.022,0,0,0,1.82,27.3l-.006-.009-.024-.032-.023-.031-.007-.01c-.246-.33-.5-.672-.723-1.011A5.21,5.21,0,0,1,.1,22.152a13.943,13.943,0,0,1,1.726-3.964l0-.006.04-.072.049-.086c.168-.3.3-.531.411-.741.422-.79.854-1.6,1.279-2.387l.009-.018.288-.536.01-.018.332-.619.005-.01c.357-.665.715-1.331,1.067-1.992a.106.106,0,0,1,.054-.083l.008-.007a.09.09,0,0,0,.013-.012A29.04,29.04,0,0,1,7.587,7.311a15.4,15.4,0,0,1,3.1-3.624C13.5,1.366,17.2.584,20.449.033H20.6c.292-.022.61-.033.946-.033A15.1,15.1,0,0,1,31.3,3.762a17.747,17.747,0,0,1,5.4,8.548,30.8,30.8,0,0,1,.939,7.549l0,.039c.049,1.211.1,2.464.225,3.7.391.944.876,1.916,1.266,2.7l.016.032.015.031a31.444,31.444,0,0,1,1.669,3.733c1.212,3.524.5,5.807-.3,7.1a4.737,4.737,0,0,1-3.934,2.261,4.228,4.228,0,0,1-.932-.1,6.107,6.107,0,0,1-1.114.1,7.38,7.38,0,0,1-1.014-.074.319.319,0,0,1-.292-.357.437.437,0,0,1,.426-.41.457.457,0,0,1,.069.005h.026a.09.09,0,0,0,.038-.013.09.09,0,0,1,.038-.013,3.346,3.346,0,0,0,2.458-3.373A7.174,7.174,0,0,0,34.5,32.866l-.007-.007a8.657,8.657,0,0,1-1.629-1.982c-.8-1.528-.35-3.15.081-4.719l.006-.023c.063-.225.144-.521.217-.813a5.658,5.658,0,0,0-.279-3.707,8.407,8.407,0,0,0-2.332-2.964c-.29-.264-.616-.508-.877-.7l-.009-.007a4.171,4.171,0,0,0-1.014-.608,9.462,9.462,0,0,1-3.573-2.815c-2.006-2.529-2.752-5.738-3.295-8.548a22.573,22.573,0,0,1-1.482,5.993A11.956,11.956,0,0,1,16.7,16.851a14.885,14.885,0,0,1-4.505,2.125l-.007,0L12.136,19c-.476.161-.981.334-1.47.518a7.014,7.014,0,0,0-1.343.608,9.666,9.666,0,0,0-1.977,3.8,12.772,12.772,0,0,0-.38,4.315,16.112,16.112,0,0,0,.406,2.22v.005l0,.009A11.525,11.525,0,0,1,7.8,33.54a4.781,4.781,0,0,1-.684,2.13l-.022.039-.015.027-.022.038-.035.062c-.358.632-1.1,1.946-.825,2.655a.722.722,0,0,0,.488.427H6.7a1.361,1.361,0,0,0,.317-.026.594.594,0,0,1,.067,0,.39.39,0,0,1,.339.183.29.29,0,0,1,.266.214.3.3,0,0,1-.114.344A4.163,4.163,0,0,1,5.191,40.376Zm-3.218-4.7h0a3.242,3.242,0,0,0,.786,3.04,3.252,3.252,0,0,0,2.414,1.066,3.527,3.527,0,0,0,.931-.128A4.606,4.606,0,0,1,1.973,35.674Zm36.293-9.692h0a22.83,22.83,0,0,0,1.395,3.88,7.761,7.761,0,0,1,.861,4.769,5.9,5.9,0,0,1-3.168,4.134A4.871,4.871,0,0,0,40.8,34.707c.4-2.542-.681-4.99-1.825-7.279C38.729,26.958,38.508,26.5,38.266,25.982Zm-7.349-7.736h0a10.379,10.379,0,0,1,1.215,1.09,6.45,6.45,0,0,1,1.8,5.023,12.812,12.812,0,0,1-.435,1.9l-.008.027a15.043,15.043,0,0,0-.394,1.6,4.391,4.391,0,0,0,1.166,3.881c.187.2.382.4.57.594l.087.09.1.105c.188.194.363.375.533.555-.115-.207-.239-.417-.347-.6a7.786,7.786,0,0,1-1.174-2.8,14.868,14.868,0,0,1,.089-3.626c.241-2.364.491-4.809-1.179-6.545a6.64,6.64,0,0,0-2.026-1.293ZM3.925,15.608l-.011.02-.326.6-.015.028-.218.4-.01.018-.394.728-.014.027c-.158.292-.324.586-.51.912l-.043.076A11.206,11.206,0,0,0,.63,22.785,5.669,5.669,0,0,0,1.973,26.59a7.556,7.556,0,0,1-.2-3.12,31.057,31.057,0,0,1,1.193-4.779l.134-.435.041-.137.01-.033,0-.011C3.366,17.368,3.631,16.487,3.925,15.608ZM20.956,7.592a28.837,28.837,0,0,1-3.193,5.5,16.776,16.776,0,0,1-3.016,2.992c-.619.465-1.287.891-1.933,1.3l0,0c-.729.465-1.483.946-2.168,1.484.526-.207,1.114-.4,1.543-.544l.03-.01.01,0c.584-.194,1.188-.395,1.762-.635a10.072,10.072,0,0,0,4.768-4.116A17.875,17.875,0,0,0,20.956,7.592Z" transform="translate(56.165 38.85)" fill="url(#linear-gradient-9)"/>
        </g>
        <path id="Path-39" data-name="Path" d="M20.826,0H2.756A2.762,2.762,0,0,0,.045,3.247L5.7,34.775a2.769,2.769,0,0,0,2.712,2.283H33.245a2.749,2.749,0,0,0,2.712-2.283L41.608,3.247A2.751,2.751,0,0,0,38.9,0Z" transform="translate(34.803 287.81)" fill="#1e254c"/>
        <g id="Group-5" data-name="Group" transform="translate(0 180.341)">
          <g id="Group-6" data-name="Group" transform="translate(0 21.813)">
            <path id="Path-40" data-name="Path" d="M35.074,27.421A13.061,13.061,0,0,1,32.742,22.7c-.938-3.12-1.673-6.341-4.435-8.4-2.281-1.7-5.094-2.308-7.755-3.12A20.078,20.078,0,0,1,16.624,9.64a12.367,12.367,0,0,1-3.8-3.45A26.964,26.964,0,0,0,9.2,1.853,7.541,7.541,0,0,0,5.016.027,4.705,4.705,0,0,0,1.164,1.219,4.544,4.544,0,0,0,.074,5.2c.456,3.044,2.585,5.682,4.258,8.167,1.647,2.46,3.269,5.225,2.813,8.32-.405,2.689-2.027,5.048-2.256,7.787a6.22,6.22,0,0,0,.963,3.906,9.469,9.469,0,0,0,3.6,2.942c1.47.786,3.041,1.42,4.46,2.308a11.071,11.071,0,0,1,3.193,3.044A23.234,23.234,0,0,1,20.3,49.792c1.445,5.91,2.585,12.4,7.857,16.183a14.881,14.881,0,0,0,8.82,2.79,13.964,13.964,0,0,0,6.057-1.5c4.866-3.094,5.956-6.214,5.956-6.214a26.28,26.28,0,0,0-3.016-23.208,28.163,28.163,0,0,0-6.589-6.62A25.723,25.723,0,0,1,35.074,27.421Z" transform="translate(0.103 0.176)" fill="url(#linear-gradient-10)"/>
            <path id="Path-41" data-name="Path" d="M13.131,15.332a5.178,5.178,0,0,0,1.343-5.5c-.177-.482-.912-.178-.735.3A4.367,4.367,0,0,1,12.675,14.7,167.83,167.83,0,0,0,.738.139C.383-.242-.25.24.1.621A164.091,164.091,0,0,1,12.041,15.18a1.027,1.027,0,0,1-.228.127A4.307,4.307,0,0,1,6.39,13.836c-.279-.431-.912.051-.634.482a5.091,5.091,0,0,0,6.488,1.649c.1-.051.177-.1.279-.152,2.154,2.968,4.182,6.011,6.133,9.106a6,6,0,0,1-4.891-.888c-.431-.279-.912.355-.482.634a6.829,6.829,0,0,0,5.829.938q1.863,2.968,3.573,6.011c.938,1.649,1.825,3.3,2.686,4.971a3.135,3.135,0,0,1-3.852-1.37c-.253-.457-.887.051-.634.482a3.925,3.925,0,0,0,4.866,1.6c1.6,3.12,3.117,6.29,4.537,9.486a4.2,4.2,0,0,1-5.043-1.344c-.279-.431-.938.051-.634.482a5.053,5.053,0,0,0,6.006,1.6,167.626,167.626,0,0,1,7.1,19.505,163.428,163.428,0,0,1,4.79,21.2.4.4,0,0,0,.786-.1A167.968,167.968,0,0,0,32.874,50.893c-.507-1.268-1.039-2.511-1.571-3.754a6.463,6.463,0,0,0,2.737-6.113.4.4,0,0,0-.786.1A5.723,5.723,0,0,1,30.973,46.4q-2.129-4.832-4.562-9.512a3.981,3.981,0,0,0,1.267-4.515.4.4,0,0,0-.735.3,3.234,3.234,0,0,1-.887,3.5c-1.926-3.7-4-7.356-6.209-10.907a.192.192,0,0,1,.1-.051,4.446,4.446,0,0,0,1.926-5.529c-.228-.457-.963-.178-.735.3a3.689,3.689,0,0,1-1.723,4.616h-.025c-1.6-2.536-3.244-5.022-4.967-7.483C13.993,16.524,13.562,15.915,13.131,15.332Z" transform="translate(7.22 8.434)" fill="#e1f7ff"/>
          </g>
          <g id="Group-7" data-name="Group" transform="translate(36.748)">
            <path id="Path-42" data-name="Path" d="M32.091,43.9a14.854,14.854,0,0,1,.152-5.885c.684-3.576,1.647-7.153,0-10.628-1.369-2.866-3.852-4.971-6.057-7.178a24.463,24.463,0,0,1-3.092-3.576A13.459,13.459,0,0,1,21.143,11.2,33.989,33.989,0,0,0,19.85,5.015a8.5,8.5,0,0,0-3.193-3.982A5.291,5.291,0,0,0,12.2.2,5.189,5.189,0,0,0,9.028,3.569c-1.14,3.272-.405,6.975-.051,10.323.355,3.3.507,6.9-1.571,9.715-1.8,2.435-4.663,3.957-6.285,6.519a6.869,6.869,0,0,0-1.09,4.388,10.881,10.881,0,0,0,2.027,4.794C3.1,40.855,4.315,42.3,5.252,43.949a12.733,12.733,0,0,1,1.6,4.692c.431,3.247-.3,6.569-1.09,9.715C4.112,64.951,1.831,71.977,5.075,78.5a16.646,16.646,0,0,0,7.274,7.381,16.1,16.1,0,0,0,6.792,1.7c6.437-.533,9.149-3.044,9.149-3.044A28.982,28.982,0,0,0,36.83,69.77a28.917,28.917,0,0,0,.634-9.791A31.689,31.689,0,0,0,34.4,49.961,29.83,29.83,0,0,1,32.091,43.9Z" transform="translate(0.07 0.007)" fill="url(#linear-gradient-11)"/>
            <path id="Path-43" data-name="Path" d="M9.1,21.885A5.8,5.8,0,0,0,13.3,17.141a.447.447,0,0,0-.887-.1A4.864,4.864,0,0,1,8.971,21,185.093,185.093,0,0,0,4.764.35C4.612-.208,3.725-.056,3.877.5A184.365,184.365,0,0,1,8.084,21.174h-.3a4.84,4.84,0,0,1-4.613-4.287c-.051-.583-.938-.431-.887.152a5.706,5.706,0,0,0,5.576,5.022,1.672,1.672,0,0,0,.355-.025c.583,4.058,1.014,8.142,1.318,12.251a6.777,6.777,0,0,1-4.384-3.424c-.279-.507-1.09-.127-.811.38A7.709,7.709,0,0,0,9.6,35.226q.266,3.919.38,7.838c.051,2.105.076,4.21.076,6.341a3.511,3.511,0,0,1-3.092-3.373c-.025-.583-.912-.431-.887.152a4.384,4.384,0,0,0,3.979,4.134c-.025,3.931-.2,7.863-.482,11.769A4.719,4.719,0,0,1,5.3,58.1c-.076-.583-.938-.431-.887.152a5.634,5.634,0,0,0,5.119,4.718A190.976,190.976,0,0,1,6.36,86.031,188.2,188.2,0,0,1,.025,109.544c-.177.533.659.862.836.33A190.368,190.368,0,0,0,10.035,67.54c.152-1.522.279-3.018.405-4.54a7.238,7.238,0,0,0,5.905-4.616c.228-.533-.608-.862-.836-.33a6.407,6.407,0,0,1-5.018,4.033c.279-3.931.431-7.863.482-11.82a4.414,4.414,0,0,0,3.6-3.8.447.447,0,0,0-.887-.1,3.573,3.573,0,0,1-2.712,2.993c.025-4.692-.127-9.385-.456-14.052h.152a5.016,5.016,0,0,0,4.815-4.464c.025-.583-.862-.685-.887-.1a4.125,4.125,0,0,1-4.106,3.678h-.025c-.253-3.348-.583-6.671-1.014-9.994C9.3,23.533,9.2,22.7,9.1,21.885Z" transform="translate(10.392 10.455)" fill="#6373e5"/>
          </g>
          <g id="Group-8" data-name="Group" transform="translate(52.461 26.633)">
            <path id="Path-44" data-name="Path" d="M31.286,38.779a11.72,11.72,0,0,1,2.027-4.287c1.673-2.41,3.548-4.743,3.472-7.838-.076-2.562-1.216-4.921-2.1-7.28a20.269,20.269,0,0,1-1.115-3.652,11.046,11.046,0,0,1,.329-4.642,26.2,26.2,0,0,0,1.064-5A6.911,6.911,0,0,0,33.921,2.1,4.284,4.284,0,0,0,30.905.022a4.192,4.192,0,0,0-3.447,1.446c-1.9,2.029-2.585,5.022-3.421,7.584S22.162,14.3,19.7,15.7c-2.129,1.217-4.714,1.4-6.792,2.739a5.443,5.443,0,0,0-2.23,2.866,8.757,8.757,0,0,0-.076,4.21c.253,1.5.684,2.968.836,4.464a10.066,10.066,0,0,1-.355,3.982,21.135,21.135,0,0,1-3.979,6.8c-3.371,4.337-7.35,8.751-7.1,14.635a13.393,13.393,0,0,0,2.94,7.838A12.736,12.736,0,0,0,7.412,66.7c4.917,1.725,7.755.761,7.755.761a23.216,23.216,0,0,0,11.126-8.091,23.556,23.556,0,0,0,3.675-7.026,25.372,25.372,0,0,0,1.014-8.4A25.245,25.245,0,0,1,31.286,38.779Z" transform="translate(9.999 0.232)" fill="url(#linear-gradient-12)"/>
            <path id="Path-45" data-name="Path" d="M35.549,17.742a4.649,4.649,0,0,0,4.663-2.131c.253-.406-.38-.761-.634-.355a3.979,3.979,0,0,1-3.827,1.8A154.094,154.094,0,0,0,39.427.444c.076-.457-.634-.634-.71-.178A148.25,148.25,0,0,1,35.043,16.88a.9.9,0,0,1-.228-.1,3.924,3.924,0,0,1-2-4.667c.152-.431-.558-.634-.71-.178a4.6,4.6,0,0,0,2.458,5.529c.076.025.177.076.253.1-.912,3.2-1.926,6.341-3.041,9.461a5.54,5.54,0,0,1-2.129-3.982c-.051-.457-.76-.457-.71,0a6.264,6.264,0,0,0,2.585,4.667c-.71,1.978-1.47,3.957-2.281,5.91-.634,1.573-1.318,3.145-2.027,4.692a2.844,2.844,0,0,1-1.166-3.5c.177-.431-.532-.609-.71-.178A3.555,3.555,0,0,0,26.907,39C25.589,41.889,24.2,44.73,22.7,47.52a3.837,3.837,0,0,1-1.875-4.337.366.366,0,0,0-.71-.178,4.539,4.539,0,0,0,2.23,5.149,151.862,151.862,0,0,1-9.884,15.954A148.613,148.613,0,0,1,.094,79.378c-.3.33.2.862.507.507A151.825,151.825,0,0,0,21.2,51.68c.608-1.065,1.191-2.131,1.774-3.221a5.847,5.847,0,0,0,5.88-1.471.359.359,0,0,0-.507-.507,5.191,5.191,0,0,1-5.018,1.344c1.5-2.815,2.889-5.656,4.207-8.548a3.558,3.558,0,0,0,3.9-1.623.363.363,0,0,0-.634-.355,2.87,2.87,0,0,1-2.991,1.319c1.546-3.45,2.965-6.95,4.258-10.526.025.025.076.025.1.051A4.024,4.024,0,0,0,37.2,26.417c.2-.406-.405-.786-.634-.355a3.35,3.35,0,0,1-4.232,1.37h-.025c.912-2.536,1.749-5.124,2.534-7.711A13.314,13.314,0,0,0,35.549,17.742Z" transform="translate(0.185 8.561)" fill="#e1f7ff"/>
          </g>
          <path id="Path-46" data-name="Path" d="M22.123,0H2.938A2.93,2.93,0,0,0,.048,3.45L6.055,36.931a2.936,2.936,0,0,0,2.889,2.41H35.3a2.936,2.936,0,0,0,2.889-2.41L44.2,3.45A2.93,2.93,0,0,0,41.308,0Z" transform="translate(33.506 100.849)" fill="url(#linear-gradient-13)"/>
        </g>
      </g>
    </g>
  </g>
</svg>
