<svg xmlns="http://www.w3.org/2000/svg" xmlns:xlink="http://www.w3.org/1999/xlink" width="416.765" height="513.013" viewBox="0 0 416.765 513.013">
  <defs>
    <radialGradient id="radial-gradient" cx="0.5" cy="0.5" r="2.707" gradientTransform="translate(0.434) scale(0.132 1)" gradientUnits="objectBoundingBox">
      <stop offset="0" stop-color="#95c6f0"/>
      <stop offset="1" stop-color="#c3eaea"/>
    </radialGradient>
    <linearGradient id="linear-gradient" x1="0.497" y1="0.656" x2="0.536" y2="0.19" gradientUnits="objectBoundingBox">
      <stop offset="0" stop-color="#384879"/>
      <stop offset="1" stop-color="#293253"/>
    </linearGradient>
    <linearGradient id="linear-gradient-2" x1="0.243" y1="0.497" x2="0.194" y2="0.497" gradientUnits="objectBoundingBox">
      <stop offset="0" stop-color="#f8ded1"/>
      <stop offset="1" stop-color="#f9b49b"/>
    </linearGradient>
    <linearGradient id="linear-gradient-3" x1="0.857" y1="0.098" x2="0.483" y2="0.519" xlink:href="#linear-gradient-2"/>
    <linearGradient id="linear-gradient-4" x1="0.474" y1="0.375" x2="0.651" y2="0.842" gradientUnits="objectBoundingBox">
      <stop offset="0" stop-color="#f8cf59"/>
      <stop offset="1" stop-color="#f4bd37"/>
    </linearGradient>
    <linearGradient id="linear-gradient-6" x1="0.615" y1="0.604" x2="0.963" y2="0.18" xlink:href="#linear-gradient-2"/>
    <linearGradient id="linear-gradient-7" x1="0.468" y1="0.547" x2="0.158" y2="0.117" xlink:href="#linear-gradient-2"/>
    <linearGradient id="linear-gradient-8" x1="0.405" y1="0.58" x2="0.316" y2="0.249" xlink:href="#linear-gradient"/>
    <linearGradient id="linear-gradient-9" x1="0.394" y1="0.303" x2="0.58" y2="0.859" xlink:href="#linear-gradient"/>
  </defs>
  <g id="yoga_class_8" data-name="yoga class 8" transform="translate(-27.235 -0.785)">
    <g id="Group" transform="translate(27)">
      <path id="Path" d="M410.93,172.622c1.8-14.316,3.8-28.608,4.938-43.018,1.985-25.112,1.087-50.861-8.482-74.484-7.891-19.442-21.193-37.49-40.188-47.247-23.272-11.953-50.3-8.6-74.4-1.134-25.729,7.985-49.969,21.072-76.832,25.135-26.556,4.016-53.088-2.221-78.722-8.693-13.089-3.307-26.154-6.733-39.432-9.119-12.238-2.221-24.949-3.9-37.376-2.291-11.86,1.536-22.894,6.307-30.927,15.355C21.95,35.653,17.414,46.5,14.6,57.434c-6.568,25.49-5.174,52.113-2.126,78,3.119,26.435,7.986,52.751,8.245,79.422a187.749,187.749,0,0,1-3.946,40.3c-2.788,13.442-6.615,26.647-9.923,39.971C.947,318.9-3.117,344.009,3.144,368.176a72.105,72.105,0,0,0,15.759,30.1,74.574,74.574,0,0,0,27.123,18.757c23.177,9.662,48.41,9.378,72.863,5.67,17.176-2.6,34.163-6.733,51.292-9.686l-.024.024s25.162-3.26,52.048,2.362c20.059,4.914,40.282,9.1,60.837,11.363,26.674,2.977,54.647,2.882,80.683-4.347,21.027-5.835,41.747-18.1,48.221-40.231,3.568-12.166,2.646-25.112,1.158-37.538-1.677-14.056-3.52-28.088-4.7-42.191a633.1,633.1,0,0,1-1.488-86.769C407.717,201.3,409.134,186.937,410.93,172.622Z" transform="translate(0.235 85.183)" fill="#cdf9f8"/>
      <path id="Path-2" data-name="Path" d="M410.93,206.613c1.8-17.135,3.8-34.241,4.938-51.489,1.985-30.056,1.087-60.876-8.482-89.151C399.495,42.7,386.193,21.1,367.2,9.423,343.926-4.885,316.9-.87,292.8,8.065c-25.729,9.557-49.969,25.221-76.832,30.085-26.556,4.807-53.088-2.658-78.722-10.405-13.089-3.959-26.154-8.058-39.432-10.914-12.238-2.658-24.949-4.665-37.376-2.743A46.33,46.33,0,0,0,29.511,32.467C21.95,42.674,17.414,55.652,14.6,68.744c-6.568,30.509-5.174,62.375-2.126,93.364,3.119,31.64,7.986,63.138,8.245,95.061a267.581,267.581,0,0,1-3.946,48.237C13.988,321.5,10.161,337.3,6.853,353.248c-5.907,28.445-9.97,58.5-3.709,87.427,2.882,13.289,8.1,25.787,15.759,36.023a75.9,75.9,0,0,0,27.123,22.45c23.177,11.565,48.41,11.225,72.863,6.786,17.176-3.11,34.163-8.058,51.292-11.593l-.024.028s25.162-3.9,52.048,2.827c20.059,5.881,40.282,10.886,60.837,13.6,26.674,3.563,54.647,3.45,80.683-5.2,21.027-6.984,41.747-21.659,48.221-48.153,3.568-14.562,2.646-30.056,1.158-44.929-1.677-16.824-3.52-33.619-4.7-50.5a906.539,906.539,0,0,1-1.488-103.855C407.717,240.939,409.134,223.748,410.93,206.613Z" transform="translate(0.235 0.785)" fill="#af3ec2"/>
      <g id="Group-2" data-name="Group" transform="translate(7.56 10)">
        <path id="Path-3" data-name="Path" d="M128,9.825C116.936,6.314,105.872,2.744,94.691,0L0,356.616,35.833,357Z" transform="translate(0.44 19)" fill="rgba(255,215,215,0.43)"/>
        <path id="Path-4" data-name="Path" d="M94.909,2.183c-1.978.384-3.957.679-5.935.915L0,338.852,14.154,339,104,0C100.986.856,97.971,1.593,94.909,2.183Z" transform="translate(113.44 38)" fill="rgba(255,215,215,0.43)"/>
        <path id="Path-5" data-name="Path" d="M77.37,0,0,290.823,14.789,291,82,38.358A222.424,222.424,0,0,0,77.37,0Z" transform="translate(327.44 86)" fill="rgba(255,215,215,0.43)"/>
        <path id="Path-6" data-name="Path" d="M138,46.468c-8-17.92-19.306-33.655-34.034-43.1A67.337,67.337,0,0,0,98.066,0L0,369.41l52.136.59Z" transform="translate(255.44 7)" fill="rgba(255,215,215,0.43)"/>
        <path id="Path-7" data-name="Path" d="M99.014,1.678,0,374.588,37.245,375,136,3.033C124.009-.8,111.406-.708,99.014,1.678Z" transform="translate(209.44)" fill="rgba(255,215,215,0.43)"/>
        <path id="Path-8" data-name="Path" d="M139,10.143C122.981,9.111,107.1,4.806,91.487,0L0,344.44l50.037.56Z" transform="translate(45.44 31)" fill="rgba(255,215,215,0.43)"/>
      </g>
      <path id="Path-9" data-name="Path" d="M363.746,87.958c21.027-4.763,41.747-14.772,48.221-32.842,3.568-9.932,2.646-20.5,1.158-30.644-1.2-8.157-2.481-16.3-3.544-24.472H2.622c-3.119,14.483-4.04,29.255.52,43.642A56.173,56.173,0,0,0,18.9,68.21c7.395,6.75,16.916,11.86,27.123,15.312,23.177,7.887,48.41,7.656,72.863,4.628,17.176-2.121,34.163-5.5,51.292-7.907l-.024.019A214.543,214.543,0,0,1,222.2,82.192a571.632,571.632,0,0,0,60.837,9.276C309.737,93.936,337.686,93.859,363.746,87.958Z" transform="translate(0.261 420.798)" fill="#212184"/>
      <path id="Path-10" data-name="Path" d="M0,5.1H404.266c-.095-1.039-.189-2.055-.26-3.095-.047-.661-.095-1.323-.165-2.008H1.134C.756,1.7.354,3.4,0,5.1Z" transform="translate(4.678 385.678)" fill="rgba(255,215,215,0.33)"/>
      <path id="Path-11" data-name="Path" d="M0,46H407.361c-.378-15.3-.732-30.7-1.063-46H2.032C1.276,15.2.591,30.6,0,46Z" transform="translate(2.646 385.293)" fill="#f79b7f"/>
      <g id="Group-3" data-name="Group" transform="translate(49 183)">
        <path id="Path-12" data-name="Path" d="M267.368,0H58.632L0,42.942H326Z" transform="translate(0.329 253.399)" fill="url(#radial-gradient)"/>
        <g id="Group-4" data-name="Group" transform="translate(46.12)">
          <path id="Path-13" data-name="Path" d="M.07,3.614S-.45,8.174,1.346,8.859s8.954,1.2,11.789.378a3.863,3.863,0,0,0,3.048-3.118L6.756,0Z" transform="translate(213.462 268.834)" fill="#76d6d3"/>
          <path id="Path-14" data-name="Path" d="M.046,5.032a1.876,1.876,0,0,0,1.04,2.173c1.418.543,20.815-.472,23.815,0s6.993,1.961,9.309,1.134c2.339-.827,4.135-4.819,4.135-4.819L20.695,0Z" transform="translate(0.072 265.361)" fill="#76d6d3"/>
          <path id="Shape" d="M10.311,49.99a.808.808,0,0,1-.85-.8,12.739,12.739,0,0,0-1.536-5.646,9.78,9.78,0,0,0-1.814-1.269l-.007,0-.045-.026A15.011,15.011,0,0,1,2.751,39.69C1.129,37.979-.627,35.373.223,32.674a12.47,12.47,0,0,1,3.214-4.592l.005-.005c.484-.509,1.031-1.085,1.507-1.663A33.768,33.768,0,0,0,8.941,20.3l0-.015a3.442,3.442,0,0,0,.046-.481c.043-.924,0-1.863-.05-2.771v-.009a24.506,24.506,0,0,1-.021-3.244,14.333,14.333,0,0,1,1.394-4.843,22.411,22.411,0,0,1,5.977-7.607c.071-.259.17-.53.257-.769l0-.011A.847.847,0,0,1,17.37,0,.888.888,0,0,1,18.1.347.676.676,0,0,1,18.156,1c-.01.03-.02.057-.031.082l-.005.014-.005.013c-.01.025-.02.051-.03.08a.646.646,0,0,1-.141.945.212.212,0,0,0-.054.041l-.007.006a.227.227,0,0,1-.058.047,12.4,12.4,0,0,0,.095,3.827,37.716,37.716,0,0,0,1.346,5.669c.446,1.441,1.018,2.871,1.57,4.253l.01.024c.35.876.712,1.782,1.043,2.692,1.359,3.076,2.552,6.116,2.22,9.473a8.659,8.659,0,0,1-2.93,6.024,16.8,16.8,0,0,1-5.41,2.528l-.13.054c-1.48.608-3.158,1.3-3.3,3.064A7.943,7.943,0,0,0,12.972,43,8.739,8.739,0,0,1,13.62,46,3.739,3.739,0,0,1,11,49.659.833.833,0,0,1,10.311,49.99ZM8.492,22.611a37.736,37.736,0,0,1-2.48,3.614c-.9,1.125-1.852,2.164-2.74,3.118l0,0A9.813,9.813,0,0,0,.909,32.863a5.218,5.218,0,0,0,.743,4.381,12.852,12.852,0,0,0,3.155,3.39A17.746,17.746,0,0,0,6.58,41.773l.018.011.112.065.223.132a25.071,25.071,0,0,0-1.883-1.99l-.007-.007c-.406-.4-.825-.809-1.229-1.24a6.349,6.349,0,0,1-2.056-4.2,8.412,8.412,0,0,1,1.984-5.032c.494-.666,1.041-1.325,1.523-1.906l.026-.031c.621-.751,1.264-1.527,1.83-2.339A11.188,11.188,0,0,0,8.492,22.611Zm14.861,2.552h0a11.852,11.852,0,0,1-2.811,8.2,11.016,11.016,0,0,1-1.393,1.393,8.678,8.678,0,0,0,1.819-1.2,8.414,8.414,0,0,0,2.552-6.378A14.276,14.276,0,0,0,23.353,25.163Z" transform="translate(5.47 132.807)" fill="url(#linear-gradient)"/>
          <path id="Path-15" data-name="Path" d="M.68,0,.35.472a1.985,1.985,0,0,0,.78,2.906l2.292,1.2A2.257,2.257,0,0,0,6.563,3.52l.8-2.079Z" transform="translate(17.842 136.023)" fill="#2b3559"/>
          <path id="Path-16" data-name="Path" d="M3.274,107.524S2.967,93,5.141,83.381A83.707,83.707,0,0,0,6.795,60.49c-.331-3.142-.165-30.5-1.158-36.805S-1,9.251.156,8.755s2.032,1.488,3.331,2.48S5.283,1.786,7.952.3,13.93,3.109,13.1,8.589s-2.812,7.961-1.158,13.938S16.93,55.364,16.93,60.49c0,0,1.985,18.9,1.985,25.041s-2.812,13.607-.827,19.395C20.049,110.737,3.274,107.524,3.274,107.524Z" transform="translate(53.074 0.222)" fill="#f8ded1"/>
          <path id="Path-17" data-name="Path" d="M46.584,28.387S56.223,27.041,58,32.238a25.965,25.965,0,0,1,1.11,10.394s9.616,2.221,15.026,4.866S85.945,48.42,88,46.341c2.315-2.362,10.962-5.906,14.625-1.039,3.686,4.866,1.347,11.717-2.079,17.032s-22.728,36.427-23.886,39.4S43.819,143.362,34.369,150.5-2.937,166.017.253,167.789c3.213,1.772,22.445-.78,25.871,0s11.27,4.2,13.254-2.646S41.811,154.749,48,152.315s24.429-13.489,32.273-24.639,44.11-60.57,50.749-60.9,34.329,39.451,36.313,41.294c1.985,1.819,36.479,42.782,38.959,45.924s7.3,14.765,7.8,17.741,15.428,2.315,15.428,0-10.773-8.953-18.239-24.049S201,120.991,193.868,112.7s-14.1-11.93-22.043-29.671c-7.962-17.741-20.72-45.758-25.871-51.4s-15.924-11.268-21.878-13.442c-5.977-2.15-18.688-6.355-21.665-10.678C99.435,3.2,83.464.441,78.975.441S67.54-.551,65.036.441A15.176,15.176,0,0,1,59.649.8,3.261,3.261,0,0,0,56.2,4.2c.189,4.465-.732,11.221-8.08,11.008Z" transform="translate(0.101 103.266)" fill="url(#linear-gradient-2)"/>
          <path id="Path-18" data-name="Path" d="M0,4.11s17.082.945,20.437,7.252c3.024,5.693,1.914,13.442-2.41,14.93-4.3,1.488,2.906,2.811,2.906,2.811s10.773-8.268,10.939-8.693.591-12.709.591-13.276S20.035,0,20.035,0l-19,3.142Z" transform="translate(55.828 108.644)" fill="#f7c9b5"/>
          <g id="Group-5" data-name="Group" transform="translate(72.768 142.449)">
            <path id="Path-19" data-name="Path" d="M5.812.033C2.433.317,1.418,2.963,0,5.278c3.568-1.866,9.38-3.166,12.238.614a10.154,10.154,0,0,1,1.7,7.937h1.323s-.78-.732-.662-5.221C14.719,4.664,11.671-.463,5.812.033Z" transform="translate(17.696 0.203)" fill="#f7c9b5"/>
            <path id="Path-20" data-name="Path" d="M2.977,4.11a14.95,14.95,0,0,0,8.765.024C5.907,4.229,0,0,0,0Z" transform="translate(0.165 4.866)" fill="#f7c9b5"/>
          </g>
          <path id="Path-21" data-name="Path" d="M4.2,0S3.2,9.827,5.024,15.473,11.166,41.01,11.332,46.3c.165,5.315-3.638,40.632-5.15,43.443C4.693,92.556-2.442,102.5.865,101.51s5.1-4.654,4.8-1.654c-.307,2.977-4.135,14.434,1.347,14.269s10.726-5.5,8.954-11.6-2.977-9.78-.992-17.08,9.285-29.175,8.789-36.64S18.774,16.135,19.27,12,23.712,1.89,23.712,1.89Z" transform="translate(54.987 145.898)" fill="#f8ded1"/>
          <path id="Path-22" data-name="Path" d="M12.446,2.74h-.425A12.48,12.48,0,0,0,1.082,20.316c5.245,11.93,17.649,9.378,24.878,6.922,8.624-2.953,10.514-12.851,9.9-17.765-.473-3.756-5.1-5.362-11.459-6.189C24.283,2.575,23.527,0,22.794,0c-.685,0-4.371,1.937-5.694,2.622C15.517,2.693,13.958,2.74,12.446,2.74Z" transform="translate(14.299 110.061)" fill="url(#linear-gradient-3)"/>
          <path id="Path-23" data-name="Path" d="M46.685,7.3C43.708,3,27.737.236,23.248.236,21.665.236,19.8.118,17.909,0,11.53,6.284.449,6.5.449,6.5h0A16.84,16.84,0,0,1,0,9.331H0s19.657.142,22.256,4.512c2.575,4.3,1.11,13.04-2.646,15.8S2.575,33.1,2.575,33.1h0a24.741,24.741,0,0,1,.8,4.559c2.882.709,14.1,3.9,17.271,10.536,5.032,1.417,10.443-.189,12.333-1.843a15.07,15.07,0,0,1,8.056-3.638C53.584,34.4,55.687,16.938,56.017,13.3,51.859,11.457,48.126,9.378,46.685,7.3Z" transform="translate(55.852 103.447)" fill="url(#linear-gradient-4)"/>
          <path id="Path-24" data-name="Path" d="M0,.354S15,6.473,16.066,13.607l2.906-6.638L6.9,0Z" transform="translate(59.207 140.724)" fill="#f7c9b5"/>
          <g id="Group-6" data-name="Group" transform="translate(55.758 103.234)">
            <path id="Path-25" data-name="Path" d="M46.685,7.3C43.708,3,27.737.236,23.248.236,21.665.236,19.8.118,17.909,0,11.53,6.284.449,6.5.449,6.5h0A16.84,16.84,0,0,1,0,9.331H0s19.657.142,22.256,4.512c2.575,4.3,1.11,13.04-2.646,15.8S2.575,33.1,2.575,33.1h0a24.741,24.741,0,0,1,.8,4.559c2.882.709,14.1,3.9,17.271,10.536,5.032,1.417,10.443-.189,12.333-1.843a15.07,15.07,0,0,1,8.056-3.638C53.584,34.4,55.687,16.938,56.017,13.3,51.859,11.457,48.126,9.378,46.685,7.3Z" transform="translate(0.095 0.213)" fill="url(#linear-gradient-4)"/>
            <g id="Group-7" data-name="Group" transform="translate(0 5.433)">
              <path id="Path-26" data-name="Path" d="M0,.661A24.741,24.741,0,0,1,.8,5.221,51.273,51.273,0,0,1,6.875,7.181C8.387,4.914,7.537,1.843,6.781,0,3.142.5,0,.661,0,.661Z" transform="translate(2.646 27.19)" fill="#f8cc52"/>
              <path id="Path-27" data-name="Path" d="M8.245,0a34.173,34.173,0,0,1-7.8,1.276h0A16.84,16.84,0,0,1,0,4.11s3.638.024,8.009.4A6.08,6.08,0,0,0,8.245,0Z" transform="translate(0.071)" fill="#f8cc52"/>
            </g>
            <g id="Group-8" data-name="Group" transform="translate(17.011 39.215)">
              <path id="Path-28" data-name="Path" d="M12.64,4.063C6.521,4.654,0,0,0,0H0A12.759,12.759,0,0,1,3.568,4.276,16.489,16.489,0,0,0,12.64,4.063Z" transform="translate(0.165 4.89)" fill="#eaaa1b"/>
              <path id="Path-29" data-name="Path" d="M6.544.034C2.622.365,1.89,3.909,0,6.389A14.429,14.429,0,0,1,7.159,3.483,25.975,25.975,0,0,0,10.8.554,10.5,10.5,0,0,0,6.544.034Z" transform="translate(16.964 0.202)" fill="#eaaa1b"/>
            </g>
          </g>
          <path id="Path-30" data-name="Path" d="M0,0S2.528,4.134,2.457,6.4a62.007,62.007,0,0,0,3.19,15.4c-.685-5.126-1.158-9.331-.969-10.819A18.181,18.181,0,0,1,6.332,5.906l-3-4.276Z" transform="translate(69.602 146.89)" fill="#f7c9b5"/>
          <path id="Path-31" data-name="Path" d="M48.119,0c-5.694,6.331-10.8,11.623-13.75,13.867C24.919,21-2.937,29.387.253,31.159c3.213,1.772,22.445-.78,25.871,0s11.27,4.2,13.254-2.646S41.811,18.119,48,15.686a65.8,65.8,0,0,0,8.529-4.465Z" transform="translate(0.125 239.848)" fill="url(#linear-gradient-6)"/>
          <path id="Path-32" data-name="Path" d="M10.8,11.008,3.166.85,2.2,0C.9,1.441,1.229,1.11,0,2.41c1.559,1.937,4.938,9.662,3.024,12.757A65.152,65.152,0,0,0,10.8,11.008Z" transform="translate(45.858 240.06)" fill="#f9b49b"/>
          <path id="Path-33" data-name="Path" d="M9.143,0,0,4.607c4.04,4.819,7.017,8.386,7.678,9.237,2.481,3.142,7.3,14.765,7.8,17.741S30.9,33.9,30.9,31.584,20.129,22.631,12.664,7.536C11.364,4.914,10.206,2.41,9.143,0Z" transform="translate(198.766 243.368)" fill="url(#linear-gradient-7)"/>
          <path id="Path-34" data-name="Path" d="M10.277,0,0,1.536C2.055,3.992,3.8,6.071,5.08,7.607c1.512-2.339,4.843-4.937,6.048-5.835C10.821,1.181,10.561.591,10.277,0Z" transform="translate(199.309 247.077)" fill="#f9b49b"/>
          <g id="Group-9" data-name="Group" transform="translate(45.835 126.857)">
            <path id="Path-35" data-name="Path" d="M38.038,3.874A60.967,60.967,0,0,0,32.2,0C22.161,15.261,5.221,21.332,0,22.891a10.826,10.826,0,0,1,.78,7.087l4.276,2.858L37,13.087Z" transform="translate(57.718 0.118)" fill="#475e99"/>
            <path id="Path-36" data-name="Path" d="M7.324,0C4.82,2.882,2.339,5.67,0,8.221c1.772,2.622,5.15,7.181,8.978,9.662a115.429,115.429,0,0,0,11.293-7.465Z" transform="translate(0.047 107.392)" fill="#475e99"/>
            <path id="Path-37" data-name="Path" d="M8.765,14.363a22.157,22.157,0,0,0,9.261-2.386C16.018,7.678,14.341,3.685,12.782,0L0,3.945C3.237,7.772,6.285,11.41,8.765,14.363Z" transform="translate(146.104 109.069)" fill="#475e99"/>
            <path id="Path-38" data-name="Path" d="M154.373,111.88C149.931,101.533,147,93.218,141.52,86.863c-7.135-8.292-14.1-11.93-22.043-29.671-7.962-17.741-20.72-45.758-25.871-51.4A37.511,37.511,0,0,0,86.542,0C78.2,16.891,60.128,22.938,52.1,24.852c.165,3.874-1.63,8.126-3.922,11.67-3.426,5.315-22.728,36.427-23.886,39.4C23.579,77.744,11.459,92.911,0,106.045c2.363,3.473,6.332,8.245,11.813,10.961,6.119-4.394,12.333-9.756,16.137-15.143,7.844-11.174,44.11-60.57,50.749-60.9s34.329,39.451,36.313,41.294c1.323,1.2,16.94,19.631,28.021,32.813A35.332,35.332,0,0,0,154.373,111.88Z" transform="translate(6.639 2.197)" fill="url(#linear-gradient-8)"/>
            <path id="Path-39" data-name="Path" d="M29.438,0C27.146.543,19,2.882,14.459,8.812,9.143,15.757,0,32.813,0,32.813H0C11.86,17.434,24.9,1.606,29.438,0Z" transform="translate(55.285 43.278)" fill="#293253"/>
            <g id="Group-10" data-name="Group" transform="translate(10.395 2.126)">
              <ellipse id="Oval" cx="2.41" cy="2.41" rx="2.41" ry="2.41" transform="translate(58.664 39.002)" fill="#c3eaea"/>
              <ellipse id="Oval-2" data-name="Oval" cx="2.41" cy="2.41" rx="2.41" ry="2.41" transform="translate(69.933 31.703)" fill="#c3eaea"/>
              <path id="Path-40" data-name="Path" d="M2.41,0A2.42,2.42,0,0,0,0,2.41,2.362,2.362,0,0,0,1.087,4.418C1.985,3.189,2.953,1.89,3.946.567A2.365,2.365,0,0,0,2.41,0Z" transform="translate(31.092 86.438)" fill="#c3eaea"/>
              <ellipse id="Oval-3" data-name="Oval" cx="2.41" cy="2.41" rx="2.41" ry="2.41" transform="translate(29.674 72.5)" fill="#c3eaea"/>
              <path id="Path-41" data-name="Path" d="M1.583,4.63a2.42,2.42,0,0,0,2.41-2.41A2.368,2.368,0,0,0,2.481,0L0,4.04A2.387,2.387,0,0,0,1.583,4.63Z" transform="translate(30.501 54.948)" fill="#c3eaea"/>
              <path id="Path-42" data-name="Path" d="M2.41,0A2.42,2.42,0,0,0,0,2.41a2.3,2.3,0,0,0,.142.8C1.087,2.1,2.032,1.063,2.93.071A1.843,1.843,0,0,0,2.41,0Z" transform="translate(61.522 49.963)" fill="#76d6d3"/>
              <path id="Path-43" data-name="Path" d="M0,2.126a2.41,2.41,0,0,0,4.82,0A2.386,2.386,0,0,0,3.52,0C2.363.52,1.229.992.118,1.394A2.5,2.5,0,0,0,0,2.126Z" transform="translate(56.254 21.048)" fill="#c3eaea"/>
              <path id="Path-44" data-name="Path" d="M2.41,0A2.409,2.409,0,0,0,.8,4.2C1.772,2.953,2.764,1.677,3.757.425A2.4,2.4,0,0,0,2.41,0Z" transform="translate(44.913 68.697)" fill="#c3eaea"/>
              <ellipse id="Oval-4" data-name="Oval" cx="2.41" cy="2.41" rx="2.41" ry="2.41" transform="translate(42.503 51.286)" fill="#c3eaea"/>
              <path id="Path-45" data-name="Path" d="M1.418,0A2.276,2.276,0,0,0,0,.472C1.3,2.2,2.292,3.52,2.906,4.3a2.373,2.373,0,0,0,.921-1.89A2.4,2.4,0,0,0,1.418,0Z" transform="translate(107.735 77.319)" fill="#c3eaea"/>
              <path id="Path-46" data-name="Path" d="M2.41,0A2.413,2.413,0,0,0,1.181,4.488C2.363,3.473,3.5,2.433,4.56,1.37A2.364,2.364,0,0,0,2.41,0Z" transform="translate(14.081 106.919)" fill="#c3eaea"/>
              <path id="Path-47" data-name="Path" d="M1.985,0A2.4,2.4,0,0,0,0,1.039Q1.524,2.847,2.977,4.583A2.379,2.379,0,0,0,4.371,2.41,2.385,2.385,0,0,0,1.985,0Z" transform="translate(135.283 109.329)" fill="#c3eaea"/>
              <path id="Path-48" data-name="Path" d="M0,3.969a2.355,2.355,0,0,0,1.677.685,2.42,2.42,0,0,0,2.41-2.41A2.394,2.394,0,0,0,2.528,0c-.213.425-.378.732-.449.921A21.976,21.976,0,0,1,0,3.969Z" transform="translate(18.476 75.075)" fill="#c3eaea"/>
              <path id="Path-49" data-name="Path" d="M2.174,4.725A2.4,2.4,0,0,0,2.812,0C1.89,1.11.945,2.2,0,3.307A2.375,2.375,0,0,0,2.174,4.725Z" transform="translate(0 98.462)" fill="#c3eaea"/>
              <path id="Path-50" data-name="Path" d="M1.418,4.536A2.41,2.41,0,0,0,2.552,0C1.89,1.039,1.016,2.41,0,4.063A2.326,2.326,0,0,0,1.418,4.536Z" transform="translate(41.086 37.797)" fill="#c3eaea"/>
              <ellipse id="Oval-5" data-name="Oval" cx="2.41" cy="2.41" rx="2.41" ry="2.41" transform="translate(17.743 93.548)" fill="#c3eaea"/>
              <ellipse id="Oval-6" data-name="Oval" cx="2.41" cy="2.41" rx="2.41" ry="2.41" transform="translate(72.343 20.765)" fill="#c3eaea"/>
              <path id="Path-51" data-name="Path" d="M4.04,1.748C3.237,1.158,2.41.567,1.559,0,1.063.992.567,1.937,0,2.835a2.335,2.335,0,0,0,1.7.709A2.41,2.41,0,0,0,4.04,1.748Z" transform="translate(81.25 0.071)" fill="#c3eaea"/>
              <path id="Path-52" data-name="Path" d="M2.433,4.819A2.41,2.41,0,1,0,0,2.41V2.5C.78,3.189,1.583,3.945,2.433,4.819Z" transform="translate(79.88 41.412)" fill="#c3eaea"/>
              <ellipse id="Oval-7" data-name="Oval" cx="2.41" cy="2.41" rx="2.41" ry="2.41" transform="translate(86.849 29.293)" fill="#c3eaea"/>
              <path id="Path-53" data-name="Path" d="M.614,0A2.411,2.411,0,0,0,2.292,4.016C1.7,2.622,1.158,1.3.614,0Z" transform="translate(148.23 107.722)" fill="#c3eaea"/>
              <path id="Path-54" data-name="Path" d="M2.41,4.418A2.38,2.38,0,0,0,3.5,4.158C2.646,2.622,1.843,1.2,1.11,0A2.424,2.424,0,0,0,0,2.032,2.431,2.431,0,0,0,2.41,4.418Z" transform="translate(91.645 10.016)" fill="#c3eaea"/>
              <path id="Path-55" data-name="Path" d="M4.276,2.41A2.42,2.42,0,0,0,1.866,0,2.412,2.412,0,0,0,0,.9C.992,2.055,2.008,3.26,3.071,4.488A2.346,2.346,0,0,0,4.276,2.41Z" transform="translate(121.792 93.548)" fill="#c3eaea"/>
              <path id="Path-56" data-name="Path" d="M4.513,2.41A2.4,2.4,0,0,0,0,1.252C.921,2.386,1.866,3.544,2.788,4.7A2.346,2.346,0,0,0,4.513,2.41Z" transform="translate(90.96 54.759)" fill="#c3eaea"/>
              <ellipse id="Oval-8" data-name="Oval" cx="2.41" cy="2.41" rx="2.41" ry="2.41" transform="translate(97.788 43.821)" fill="#c3eaea"/>
              <path id="Path-57" data-name="Path" d="M0,2.15a2.42,2.42,0,0,0,2.41,2.41A2.339,2.339,0,0,0,3.4,4.347C2.717,2.882,2.032,1.441,1.347,0A2.368,2.368,0,0,0,0,2.15Z" transform="translate(101.946 30.238)" fill="#c3eaea"/>
              <path id="Path-58" data-name="Path" d="M.473,0A2.486,2.486,0,0,0,0,1.417a2.42,2.42,0,0,0,2.41,2.41A2.339,2.339,0,0,0,3.4,3.614c-.614-.874-1.276-1.7-1.961-2.528C1.11.709.78.354.473,0Z" transform="translate(136.346 85.847)" fill="#c3eaea"/>
              <ellipse id="Oval-9" data-name="Oval" cx="2.41" cy="2.41" rx="2.41" ry="2.41" transform="translate(136.346 97.612)" fill="#c3eaea"/>
              <path id="Path-59" data-name="Path" d="M4.182,3.638C3.166,2.528,2.15,1.323,1.134,0A2.391,2.391,0,0,0,0,2.032a2.42,2.42,0,0,0,2.41,2.41A2.586,2.586,0,0,0,4.182,3.638Z" transform="translate(123.682 72.902)" fill="#c3eaea"/>
              <path id="Path-60" data-name="Path" d="M0,2.315a2.42,2.42,0,0,0,2.41,2.41,2.3,2.3,0,0,0,1.323-.4Q2.953,2.764,2.174.992C2.032.661,1.866.331,1.725,0A2.439,2.439,0,0,0,0,2.315Z" transform="translate(113.547 56.247)" fill="#c3eaea"/>
              <ellipse id="Oval-10" data-name="Oval" cx="2.41" cy="2.41" rx="2.41" ry="2.41" transform="translate(121.273 81.619)" fill="#c3eaea"/>
              <ellipse id="Oval-11" data-name="Oval" cx="2.41" cy="2.41" rx="2.41" ry="2.41" transform="translate(102.608 61.09)" fill="#c3eaea"/>
              <path id="Path-61" data-name="Path" d="M2.2,0C1.252,1.677.5,3.071,0,3.992a1.091,1.091,0,0,0,.165.165c0-.024.024-.024.024-.047C1.158,2.858,2.126,1.63,3.071.4L3.1.378A2.345,2.345,0,0,0,2.2,0Z" transform="translate(45.575 68.744)" fill="#76d6d3"/>
            </g>
          </g>
          <path id="Path-62" data-name="Path" d="M34.824,16.952c-2.15-2.646-5.812-2.882-8.954-3.142a12.171,12.171,0,0,1-5.741-1.583A9.273,9.273,0,0,1,16.632,8c-.756-1.8-1.134-3.78-2.292-5.386a5.677,5.677,0,0,0-4.324-2.6C6.733-.2,3.709,1.975,1.984,4.645,0,7.692-.26,11.543.189,15.039a15.741,15.741,0,0,0,3.9,9.142,17.127,17.127,0,0,0,9.167,4.465,25.431,25.431,0,0,0,18.924-3.969c1.252-.874,2.812-1.89,3.473-3.331A4.188,4.188,0,0,0,34.824,16.952Z" transform="translate(12.971 111.653)" fill="#384879"/>
          <path id="Shape-2" data-name="Shape" d="M21.915,29.876a15.858,15.858,0,0,1-5.26-.851,23.411,23.411,0,0,1-2.883-.378A18.456,18.456,0,0,1,5.9,25.339,10.305,10.305,0,0,1,.542,12.748a13.927,13.927,0,0,1,1.985-8.1C3.977,2.4,6.732,0,10.114,0c.158,0,.307,0,.445.014a4.83,4.83,0,0,1,1.749.4.347.347,0,0,1,.267-.139.312.312,0,0,1,.158.044c2.727,1.476,4.3,4.161,5.811,6.758l.014.023.247.424a22.509,22.509,0,0,0,2.581,3.661,8.149,8.149,0,0,0,3.609,2.457c.347.037.711.074,1.076.111l.318.031.238.02c3.1.254,6.619.542,8.716,3.122a4.249,4.249,0,0,1,.827,4.417c-.079.158-.145.288-.213.4a6.917,6.917,0,0,1-3.284,4.94,18.631,18.631,0,0,1-5.764,2.549A20.5,20.5,0,0,1,21.915,29.876ZM35.06,22.835a15.539,15.539,0,0,1-1.9,1.492c-.158.111-.312.22-.462.327a24.423,24.423,0,0,1-6.255,3.106,25.577,25.577,0,0,1-6.858,1.264,16.466,16.466,0,0,0,2.318.161,18.849,18.849,0,0,0,4.227-.493C27.883,28.29,33.713,26.678,35.06,22.835ZM.731,15.065h0a9.668,9.668,0,0,0,2.838,7.84A16.92,16.92,0,0,1,.731,15.065ZM15.521,3.676h0a20.883,20.883,0,0,1,1,2.515l0,.014.008.023c.2.577.406,1.174.645,1.747a9.272,9.272,0,0,0,3.5,4.228,8.141,8.141,0,0,0,1.583.779A19.676,19.676,0,0,1,17.961,7.4l0-.007a35.3,35.3,0,0,0-2.435-3.713Z" transform="translate(12.453 111.677)" fill="url(#linear-gradient-9)"/>
        </g>
      </g>
    </g>
  </g>
</svg>
