<svg height="543.266" viewBox="0 0 507 543.266" width="507" xmlns="http://www.w3.org/2000/svg">
    <defs>
        <radialGradient cx="0.453" cy="0.5" gradientTransform="translate(0.384 0) scale(0.15 1)" gradientUnits="objectBoundingBox"
            id="radial-gradient" r="2.941">
            <stop offset="0" stop-color="#9cccf2" />
            <stop offset="1" stop-color="#fff" />
        </radialGradient>
        <linearGradient gradientUnits="objectBoundingBox" id="linear-gradient" x1="0.474" x2="0.488" y1="0.877"
            y2="0.706">
            <stop offset="0" stop-color="#fce6e0" />
            <stop offset="1" stop-color="#ffeff5" />
        </linearGradient>
        <linearGradient gradientUnits="objectBoundingBox" id="linear-gradient-2" x1="0.06" x2="1.145" y1="0.867"
            y2="0.231">
            <stop offset="0" stop-color="#ffb3ce" />
            <stop offset="1" stop-color="#ff97bd" />
        </linearGradient>
        <linearGradient gradientUnits="objectBoundingBox" id="linear-gradient-3" x1="0.676" x2="-0.251" y1="0.551"
            y2="0.246">
            <stop offset="0" stop-color="#ffecec" />
            <stop offset="1" stop-color="#ffeceb" />
        </linearGradient>
        <linearGradient gradientUnits="objectBoundingBox" id="linear-gradient-4" x1="0.729" x2="0.467" y1="0.773"
            y2="0.228">
            <stop offset="0" stop-color="#344270" />
            <stop offset="1" stop-color="#27345d" />
        </linearGradient>
        <linearGradient gradientUnits="objectBoundingBox" id="linear-gradient-5" x2="1" y1="0.5"
            y2="0.5">
            <stop offset="0" stop-color="#fce0dd" />
            <stop offset="1" stop-color="#f5b7a8" />
        </linearGradient>
        <linearGradient gradientUnits="objectBoundingBox" id="linear-gradient-6" x1="0.515" x2="0.143" y1="0.524"
            y2="0.678">
            <stop offset="0" stop-color="#fae4dc" />
            <stop offset="1" stop-color="#fffbfd" />
        </linearGradient>
        <linearGradient gradientUnits="objectBoundingBox" id="linear-gradient-7" x1="0.328" x2="0.702" y1="0.347"
            y2="0.9">
            <stop offset="0" stop-color="#323f6a" />
            <stop offset="1" stop-color="#374676" />
        </linearGradient>
        <linearGradient gradientUnits="objectBoundingBox" id="linear-gradient-8" x1="0.741" x2="1.741" y1="0.5"
            y2="0.5">
            <stop offset="0" stop-color="#fce9e4" />
            <stop offset="1" stop-color="#fce6e1" />
        </linearGradient>
        <linearGradient gradientUnits="objectBoundingBox" id="linear-gradient-9" x1="0.391" x2="0.536" y1="0.013"
            y2="0.606">
            <stop offset="0" stop-color="#7cb0e8" />
            <stop offset="1" stop-color="#a8d7f7" />
        </linearGradient>
        <linearGradient gradientUnits="objectBoundingBox" id="linear-gradient-10" x1="0.678" x2="0.297" y1="0.256"
            y2="0.817">
            <stop offset="0" stop-color="#7cb0e8" />
            <stop offset="1" stop-color="#7fb3e9" />
        </linearGradient>
        <linearGradient gradientUnits="objectBoundingBox" id="linear-gradient-11" x1="0.787" x2="0.18" y1="-0.018"
            y2="1.003">
            <stop offset="0" stop-color="#31409b" />
            <stop offset="1" stop-color="#3d49bf" />
        </linearGradient>
    </defs>
    <g data-name="Group 2" id="Group_2" transform="translate(75.5 46.766)">
        <g data-name="yoga class 2" id="yoga_class_2" transform="translate(-75.5 -47.5)">
            <rect fill="#fff" height="507" id="Rectangle" transform="translate(0 37)" width="507" />
            <g id="Group" transform="translate(23)">
                <path d="M444.983,288.885c-6.539-34.255-9.352-69.4-7.122-104.45,1.09-17.009,3.827-33.545,6.741-50.228,2.813-16.062,5.525-32.716,4.055-49.163-1.419-15.648-6.513-30.143-15.916-41.561a71.468,71.468,0,0,0-30.97-21.446c-28.258-10.265-58.164-1.331-85.611,8.135-14.319,4.94-28.638,10.146-43.388,13.1a98.54,98.54,0,0,1-39.688.059c-24.685-5.325-47.443-18.37-70.734-28.753C139.136,4.228,114.528-3.463,89.564,1.595,66.882,6.18,46.4,21.651,31.451,41.766,15.409,63.33,5.119,89.983,1.622,118.232c-4.131,33.545-.076,67.652,8.82,99.717,4.46,16.122,10.315,31.533,16.423,46.886,5.626,14.14,11.481,29.048,12.621,44.785,1.115,15.619-3.193,30.025-8.287,44.312-5.119,14.376-10.492,28.516-12.14,44.135-2.813,26.712,5.626,54.281,20.579,74.426a77.883,77.883,0,0,0,27.244,23.428c13.255,6.626,27.625,9.14,41.994,8.874,29.348-.532,57.277-11.832,86.168-16.122,11.075-1.627,22.328-2.248,33.4-.592,24.634,6.833,49.471,13.016,74.662,16.3a325.688,325.688,0,0,0,63.511,1.864c25.926-1.745,52.816-12.01,70.683-35.024,16.828-21.683,23.341-51.678,23.367-80.4C460.721,356.063,451.395,322.489,444.983,288.885Z"
                    fill="#af3ec2"
                    id="Path" transform="translate(0.025 0.734)" />
                <path d="M382.384,125.986h-3.091V107.444h-45.34v18.541h-3.092V107.444h-45.34v18.541h-3.092V107.444H237.09v18.541H234V107.444H188.658v18.541h-3.092V107.444H140.226v18.541h-3.092V107.444H91.795v18.541H88.7V107.444H43.363v18.541H40.271V107.444H0l.1-.428L.1,107,.1,107l.008-.034v-.005l.029-.129.005-.023.007-.032v-.006l.023-.1c.18-.8.356-1.574.535-2.293H17.36V85.985H6.868l.1-.251.01-.024.037-.093c.046-.112.091-.225.135-.338l0-.009.043-.109.038-.095c.278-.7.575-1.443.876-2.15H40.271V64.527H15.384c.376-1.078.7-2.081.988-3.069h.938v-3.45A60.109,60.109,0,0,0,19.49,40H40.245V21.611H15.967c-.418-1.266-.738-2.213-1.04-3.069h2.407V0h3.092V18.542H65.767V0h3.091V18.542H114.2V0h3.066V18.542H162.6V0H165.7V18.542H210.96V0h3.092V18.542h45.339V0h3.091V18.542h45.34V0h3.091V18.542h45.34V0h3.092V18.542h45.34V0h3.092V18.542h16.8l.024.106.04.184.03.142.006.031,0,.012.023.1.017.082.011.049c.049.23.1.461.149.685l.016.073.011.046.012.052.039.17.03.132.04.176.021.092,0,.014,0,.008.022.1c.062.271.123.541.185.812H382.283V40h45.339V31.63l.281,1.144c.355,1.447.714,2.911,1.1,4.5l.022.091q.7,2.863,1.407,5.732H407.8v18.39h26.966c.1.434.174.79.259,1.19l0,.013.006.03.012.056,0,.005.023.107.023.11.006.033.014.067,0,.009.014.067.011.053.015.072.027.129.006.03.032.152,0,.016.008.039,0,.022.032.154.044.207.005.027c.034.159.069.322.1.481h-4.713V82.941h8.033c.041.326.09.7.19,1.428.1.769.167,1.244.216,1.642H407.905v18.364h32.769c.025.989.025,1.995.025,2.967v.1h-9.884v18.54h-3.091V107.444h-45.34v18.541ZM359.372,86.011V104.4h45.34V86.011Zm-48.431,0V104.4H356.28V86.011Zm-48.406,0V104.4h45.339V86.011Zm-48.432,0h0V104.4h45.339V86.011H214.1Zm-48.406,0V104.4h45.34V86.011Zm-48.432,0V104.4H162.6V86.011Zm-48.407,0V104.4H114.2V86.011Zm-48.431,0V104.4H65.767V86.011ZM382.283,64.552h0V82.941h45.339V64.553H382.283Zm-48.406,0h0V82.941h45.339V64.553H333.877Zm-48.432,0V82.941h45.339V64.553Zm-48.406,0V82.941h45.34V64.553Zm-48.432,0h0V82.941h45.34V64.553h-45.34Zm-48.406,0V82.941H185.54V64.553Zm-48.432,0V82.941h45.339V64.553Zm-48.432,0V82.941H88.677V64.553H43.338ZM359.372,43.094v18.39h45.34V43.094Zm-48.431,0v18.39H356.28V43.094Zm-48.406,0v18.39h45.339V43.094Zm-48.432,0h0v18.39h45.339V43.094H214.1Zm-48.406,0v18.39h45.34V43.094Zm-48.432,0v18.39H162.6V43.094Zm-48.407,0v18.39H114.2V43.094Zm-48.431,0v18.39H65.767V43.094ZM333.877,21.636h0V40.025h45.339V21.636H333.877Zm-48.432,0V40.025h45.339V21.636Zm-48.406,0V40.025h45.34V21.636Zm-48.432,0h0V40.025h45.34V21.636h-45.34Zm-48.406,0V40.025H185.54V21.636Zm-48.432,0V40.025h45.339V21.636Zm-48.432,0V40.025H88.677V21.636H43.338Z"
                    fill="#d6aedc"
                    id="Shape" transform="translate(20.123 300.747)" />
                <path d="M0,.152c.887,18.82,8.769,37.26,21.035,51.439A75.889,75.889,0,0,0,48.28,71.68c13.255,5.682,27.625,7.838,41.994,7.609,29.348-.457,57.277-10.146,86.168-13.824,11.075-1.4,22.328-1.928,33.4-.507,24.634,5.859,49.471,11.16,74.662,13.976a379.459,379.459,0,0,0,63.511,1.6c25.927-1.5,52.816-10.3,70.683-30.031C431.348,36.525,438.191,18.516,440.8,0,346.7.1,84.115.406,0,.152Z" data-name="Path"
                    fill="#3b47b9"
                    id="Path-2" transform="translate(18.628 426.58)" />
            </g>
        </g>
        <g data-name="YOGA INSTRUCTOR" id="YOGA_INSTRUCTOR" transform="translate(0.5 0.5)">
            <path d="M0,0H375V259H0Z" data-name="Rectangle" fill="#af3ec2" id="Rectangle-2" />
            <rect data-name="Rectangle" fill="#d6aedc" height="7.018" id="Rectangle-3"
                transform="translate(0 251.848)" width="375" />
            <g data-name="Group" id="Group-2" transform="translate(32.679 67.911)">
                <path d="M0,0H309.4V167.438H0Z" data-name="Rectangle" fill="#d6aedc"
                    id="Rectangle-4" transform="translate(0.134 0.161)" />
                <rect data-name="Rectangle" fill="#dbf0f4" height="153.375" id="Rectangle-5"
                    transform="translate(7.152 7.179)" width="295.313" />
            </g>
            <g data-name="Group" id="Group-3" transform="translate(39.643 115.054)">
                <path d="M0,113.17V14.786H24.616V69.964h18.75V35.839h4.313V23.893h9.375V59.705h17.17V0H91.018V14.223h7.045V50.063h9.375V22.179L127.366,0V71.652h22.661V40.393h18.75V94.982h15.616V5.679h17.571V44.357h15.241V17.063l23.839,10.232V72.241h40.232V28.446h14.063V113.17Z" data-name="Path"
                    fill="#c7d1d7"
                    id="Path-3" transform="translate(0.188 0.241)" />
                <rect data-name="Rectangle" fill="#fff" height="7.125" id="Rectangle-6"
                    transform="translate(75.857 17.063)" width="2.92" />
                <rect data-name="Rectangle" fill="#fff" height="7.125" id="Rectangle-7"
                    transform="translate(80.089 17.063)" width="2.92" />
                <rect data-name="Rectangle" fill="#fff" height="7.125" id="Rectangle-8"
                    transform="translate(84.321 17.063)" width="2.92" />
                <rect data-name="Rectangle" fill="#fff" height="7.125" id="Rectangle-9"
                    transform="translate(88.554 17.063)" width="2.92" />
                <rect data-name="Rectangle" fill="#fff" height="7.125" id="Rectangle-10"
                    transform="translate(92.786 17.063)" width="2.92" />
                <rect data-name="Rectangle" fill="#fff" height="7.125" id="Rectangle-11"
                    transform="translate(75.857 27.134)" width="2.92" />
                <rect data-name="Rectangle" fill="#fff" height="7.125" id="Rectangle-12"
                    transform="translate(80.089 27.134)" width="2.92" />
                <rect data-name="Rectangle" fill="#fff" height="7.125" id="Rectangle-13"
                    transform="translate(84.321 27.134)" width="2.92" />
                <rect data-name="Rectangle" fill="#fff" height="7.125" id="Rectangle-14"
                    transform="translate(88.554 27.134)" width="2.92" />
                <rect data-name="Rectangle" fill="#fff" height="7.125" id="Rectangle-15"
                    transform="translate(92.786 27.134)" width="2.92" />
                <rect data-name="Rectangle" fill="#fff" height="7.125" id="Rectangle-16"
                    transform="translate(75.857 37.205)" width="2.92" />
                <rect data-name="Rectangle" fill="#fff" height="7.125" id="Rectangle-17"
                    transform="translate(80.089 37.205)" width="2.92" />
                <rect data-name="Rectangle" fill="#fff" height="7.125" id="Rectangle-18"
                    transform="translate(84.321 37.205)" width="2.92" />
                <rect data-name="Rectangle" fill="#fff" height="7.125" id="Rectangle-19"
                    transform="translate(88.554 37.205)" width="2.92" />
                <rect data-name="Rectangle" fill="#fff" height="7.125" id="Rectangle-20"
                    transform="translate(92.786 37.205)" width="2.92" />
                <rect data-name="Rectangle" fill="#fff" height="7.125" id="Rectangle-21"
                    transform="translate(75.857 47.304)" width="2.92" />
                <rect data-name="Rectangle" fill="#fff" height="7.125" id="Rectangle-22"
                    transform="translate(80.089 47.304)" width="2.92" />
                <rect data-name="Rectangle" fill="#fff" height="7.125" id="Rectangle-23"
                    transform="translate(84.321 47.304)" width="2.92" />
                <rect data-name="Rectangle" fill="#fff" height="7.125" id="Rectangle-24"
                    transform="translate(88.554 47.304)" width="2.92" />
                <rect data-name="Rectangle" fill="#fff" height="7.125" id="Rectangle-25"
                    transform="translate(92.786 47.304)" width="2.92" />
                <rect data-name="Rectangle" fill="#fff" height="7.125" id="Rectangle-26"
                    transform="translate(75.857 57.375)" width="2.92" />
                <rect data-name="Rectangle" fill="#fff" height="7.125" id="Rectangle-27"
                    transform="translate(80.089 57.375)" width="2.92" />
                <rect data-name="Rectangle" fill="#fff" height="7.125" id="Rectangle-28"
                    transform="translate(84.321 57.375)" width="2.92" />
                <rect data-name="Rectangle" fill="#fff" height="7.125" id="Rectangle-29"
                    transform="translate(88.554 57.375)" width="2.92" />
                <rect data-name="Rectangle" fill="#fff" height="7.125" id="Rectangle-30"
                    transform="translate(92.786 57.375)" width="2.92" />
                <rect data-name="Rectangle" fill="#fff" height="8.839" id="Rectangle-31"
                    transform="translate(185.304 12.723)" width="3.188" />
                <rect data-name="Rectangle" fill="#fff" height="8.839" id="Rectangle-32"
                    transform="translate(189.589 12.723)" width="3.188" />
                <rect data-name="Rectangle" fill="#fff" height="8.839" id="Rectangle-33"
                    transform="translate(193.875 12.723)" width="3.188" />
                <rect data-name="Rectangle" fill="#fff" height="8.839" id="Rectangle-34"
                    transform="translate(198.161 12.723)" width="3.188" />
                <rect data-name="Rectangle" fill="#fff" height="8.839" id="Rectangle-35"
                    transform="translate(185.304 24.509)" width="3.188" />
                <rect data-name="Rectangle" fill="#fff" height="8.839" id="Rectangle-36"
                    transform="translate(189.589 24.509)" width="3.188" />
                <rect data-name="Rectangle" fill="#fff" height="8.839" id="Rectangle-37"
                    transform="translate(193.875 24.509)" width="3.188" />
                <rect data-name="Rectangle" fill="#fff" height="8.839" id="Rectangle-38"
                    transform="translate(198.161 24.509)" width="3.188" />
                <rect data-name="Rectangle" fill="#fff" height="8.839" id="Rectangle-39"
                    transform="translate(185.304 36.268)" width="3.188" />
                <rect data-name="Rectangle" fill="#fff" height="8.839" id="Rectangle-40"
                    transform="translate(189.589 36.268)" width="3.188" />
                <rect data-name="Rectangle" fill="#fff" height="8.839" id="Rectangle-41"
                    transform="translate(193.875 36.268)" width="3.188" />
                <rect data-name="Rectangle" fill="#fff" height="8.839" id="Rectangle-42"
                    transform="translate(198.161 36.268)" width="3.188" />
                <rect data-name="Rectangle" fill="#fff" height="8.839" id="Rectangle-43"
                    transform="translate(185.304 48.027)" width="3.188" />
                <rect data-name="Rectangle" fill="#fff" height="8.839" id="Rectangle-44"
                    transform="translate(189.589 48.027)" width="3.188" />
                <rect data-name="Rectangle" fill="#fff" height="8.839" id="Rectangle-45"
                    transform="translate(193.875 48.027)" width="3.188" />
                <rect data-name="Rectangle" fill="#fff" height="8.839" id="Rectangle-46"
                    transform="translate(198.161 48.027)" width="3.188" />
                <rect data-name="Rectangle" fill="#fff" height="8.839" id="Rectangle-47"
                    transform="translate(185.304 59.813)" width="3.188" />
                <rect data-name="Rectangle" fill="#fff" height="8.839" id="Rectangle-48"
                    transform="translate(189.589 59.813)" width="3.188" />
                <rect data-name="Rectangle" fill="#fff" height="8.839" id="Rectangle-49"
                    transform="translate(193.875 59.813)" width="3.188" />
                <rect data-name="Rectangle" fill="#fff" height="8.839" id="Rectangle-50"
                    transform="translate(198.161 59.813)" width="3.188" />
                <rect data-name="Rectangle" fill="#fff" height="6.964" id="Rectangle-51"
                    transform="translate(1.527 20.491)" width="4.5" />
                <rect data-name="Rectangle" fill="#fff" height="6.964" id="Rectangle-52"
                    transform="translate(7.152 20.491)" width="4.5" />
                <rect data-name="Rectangle" fill="#fff" height="6.964" id="Rectangle-53"
                    transform="translate(12.804 20.491)" width="4.5" />
                <rect data-name="Rectangle" fill="#fff" height="6.964" id="Rectangle-54"
                    transform="translate(18.429 20.491)" width="4.5" />
                <rect data-name="Rectangle" fill="#fff" height="6.964" id="Rectangle-55"
                    transform="translate(1.527 29.196)" width="4.5" />
                <rect data-name="Rectangle" fill="#fff" height="6.964" id="Rectangle-56"
                    transform="translate(7.152 29.196)" width="4.5" />
                <rect data-name="Rectangle" fill="#fff" height="6.964" id="Rectangle-57"
                    transform="translate(12.804 29.196)" width="4.5" />
                <rect data-name="Rectangle" fill="#fff" height="6.964" id="Rectangle-58"
                    transform="translate(18.429 29.196)" width="4.5" />
                <rect data-name="Rectangle" fill="#fff" height="6.964" id="Rectangle-59"
                    transform="translate(1.527 37.929)" width="4.5" />
                <rect data-name="Rectangle" fill="#fff" height="6.964" id="Rectangle-60"
                    transform="translate(7.152 37.929)" width="4.5" />
                <rect data-name="Rectangle" fill="#fff" height="6.964" id="Rectangle-61"
                    transform="translate(12.804 37.929)" width="4.5" />
                <rect data-name="Rectangle" fill="#fff" height="6.964" id="Rectangle-62"
                    transform="translate(18.429 37.929)" width="4.5" />
                <rect data-name="Rectangle" fill="#fff" height="6.964" id="Rectangle-63"
                    transform="translate(1.527 46.634)" width="4.5" />
                <rect data-name="Rectangle" fill="#fff" height="6.964" id="Rectangle-64"
                    transform="translate(7.152 46.634)" width="4.5" />
                <rect data-name="Rectangle" fill="#fff" height="6.964" id="Rectangle-65"
                    transform="translate(12.804 46.634)" width="4.5" />
                <rect data-name="Rectangle" fill="#fff" height="6.964" id="Rectangle-66"
                    transform="translate(18.429 46.634)" width="4.5" />
            </g>
            <path d="M0,0,80.759,153.375h27.482L27.83,0Z" data-name="Path" fill="#e8f5f5"
                id="Path-4" opacity="0.73" transform="translate(47.705 75.089)" />
            <path d="M0,0,80.759,153.375H90.964L10.58,0Z" data-name="Path" fill="#e8f5f5"
                id="Path-5" opacity="0.73" transform="translate(87.375 75.089)" />
            <path d="M0,0,80.732,153.375h27.509L27.83,0Z" data-name="Path" fill="#e8f5f5"
                id="Path-6" opacity="0.73" transform="translate(162.723 75.089)" />
            <path d="M0,0,80.759,153.375H90.964L10.58,0Z" data-name="Path" fill="#e8f5f5"
                id="Path-7" opacity="0.73" transform="translate(202.393 75.089)" />
            <path d="M0,0,80.732,153.375H90.964L10.554,0Z" data-name="Path" fill="#e8f5f5"
                id="Path-8" opacity="0.73" transform="translate(225.482 75.089)" />
            <g data-name="Group" id="Group-4" transform="translate(126.161 67.911)">
                <rect data-name="Rectangle" fill="#b944cc" height="167.438" id="Rectangle-67"
                    transform="translate(0.054 0.161)" width="8.116" />
                <path d="M0,0H8.116V167.438H0Z" data-name="Rectangle" fill="#b944cc"
                    id="Rectangle-68" transform="translate(114.509 0.161)" />
            </g>
            <path d="M0,0H114V173H0Z" data-name="Rectangle" fill="#d6aedc"
                id="Rectangle-69" transform="translate(131 68)" />
        </g>
        <g data-name="yoga class 4" id="yoga_class_4" transform="translate(49.5 102.5)">
            <g data-name="Group" id="Group-5">
                <g data-name="Group" id="Group-6" transform="translate(0.706 0.487)">
                    <path d="M228.968,1.838A9,9,0,0,0,223.509,0H49.468a9.048,9.048,0,0,0-5.46,1.838L1.481,34.237A3.733,3.733,0,0,0,3.74,40.943H269.194a3.733,3.733,0,0,0,2.259-6.705Z" data-name="Path"
                        fill="#1e254c"
                        id="Path-9" transform="translate(0.067 290.131)" />
                    <path d="M228.968,1.838A9,9,0,0,0,223.509,0H49.468a9.048,9.048,0,0,0-5.46,1.838L1.481,34.237A3.733,3.733,0,0,0,3.74,40.943H269.194a3.733,3.733,0,0,0,2.259-6.705Z" data-name="Path"
                        fill="url(#radial-gradient)"
                        id="Path-10" transform="translate(0.067 285.494)" />
                    <g data-name="Group" id="Group-7" transform="translate(75.097)">
                        <path d="M30.328,17.131s-4.79,43.742-5.251,53.142-1.548,55.9,1.548,65.154c0,0,6.317,10.319,13.89,12.638s15.584,3.071,13.262,5.243c-2.322,2.152-14.35,3.238-19.58,1.546-5.251-1.692-17.279,2.152-20.04-1.838s.146-7.081,2.322-13.244c2.155-6.162-10.668-21.787-8.786-42.05C9.619,77,8.384,73.574,6.083,64.487,3.908,55.944-2.326,29.644.917,7.773S30.328,17.131,30.328,17.131Z" data-name="Path"
                            fill="url(#linear-gradient)"
                            id="Path-11" transform="translate(27.323 143.862)" />
                        <path d="M16.421,4.073l-1.067-1.3L5.4,2.841,0,0A75.365,75.365,0,0,0,3.347,11.99c3.765-2.528,11.17-3.865,13.116-4.449C16.421,6.141,16.463,5.577,16.421,4.073Z" data-name="Path"
                            fill="#c9b5bc"
                            id="Path-12" transform="translate(35.603 254.452)" />
                        <path d="M45.644,110.276c0-.46,4.623-38.729,4.79-43.053.146-4.3-.084-21.558-2.7-24.942S8.451,1.548,6.631.315,0,1.861,0,1.861L16.5,18.8,37.9,42.365v24.42l-2.2,45.037Z" data-name="Path"
                            fill="#fff7ec"
                            id="Path-13" transform="translate(65.035 1.439)" />
                        <path d="M18.743,4.763s-4.874,4.951-4.414,10.173c.46,5.243,4.414,10.633,4.414,10.633H5.083L0,13.7,6.945,0Z" data-name="Path"
                            fill="url(#linear-gradient-2)"
                            id="Path-14" transform="translate(93.568 83.056)" />
                        <path d="M1.945,5.306C3.18,4.387,6.819,4.261,7.8,4.241A18.641,18.641,0,0,1,9.371,2.319L3.64,0,0,.773C0,.794.5,6.371,1.945,5.306Z" data-name="Path"
                            fill="#f7699c"
                            id="Path-15" transform="translate(102.939 85.5)" />
                        <path d="M3.949.336a1.154,1.154,0,0,0-1.736,1.5,11.07,11.07,0,0,0-2.2,7.144c.146,2.36.962,5.849,4.037,4.846a5.972,5.972,0,0,0,3.87-5.953C7.84,4.848,6.02,2.383,3.949.336Z" data-name="Path"
                            fill="#131944"
                            id="Path-16" transform="translate(112.754 57.339)" />
                        <path d="M27.314,11.424a15.481,15.481,0,0,0-2.05-5.765A11.943,11.943,0,0,0,9.847,1.209C-4.544,8.186-.005,18.61,3.886,26.068c4.372,8.377,12.426,9.191,18.032,8.669,3.912-.355,4.916-1.608,6.861-10.674.69-.209,2.573-1.17,2.7-2.068.084-.585-2.238-3.4-3.556-4.888a2.782,2.782,0,0,1-.69-1.838A29.871,29.871,0,0,0,27.314,11.424Z" data-name="Path"
                            fill="url(#linear-gradient-3)"
                            id="Path-17" transform="translate(91.272 53.855)" />
                        <path d="M43.636,4.187h0C40.163.51,34.829-.66,29.976.343,24.809,1.429,20.626,5.21,18.053,9.7a28.311,28.311,0,0,0-2.866,7.708c-.69,2.945-1.443,5.515-4.163,7.144-2.217,1.337-4.916,2.569-5.376,5.431-.23,1.4.356,2.9-.042,4.282S3.786,36.4,2.74,37.254A7.227,7.227,0,0,0,.293,44.879a7.219,7.219,0,0,0,6.213,4.909h0a4.814,4.814,0,0,1,.774-2.611c.439-.836,1.966-1.128,2.782-.982a19.992,19.992,0,0,1,3.556,1.253,7.579,7.579,0,0,0,9.6-4.094c.858-2.047.418-4.408,2.008-6.141,2.28-2.528,6.443-3.718,6.631-7.687.126-2.34-1.381-4.387-1.4-6.685-.042-2.716,2.385-4.575,4.414-5.933a23.375,23.375,0,0,0,5.815-4.993A17.731,17.731,0,0,0,43.887,5,.809.809,0,0,0,43.636,4.187Z" data-name="Path"
                            fill="#131944"
                            id="Path-18" transform="translate(73.423 53.844)" />
                        <path d="M16.756,0,8.493,1.608,0,4.575A60.789,60.789,0,0,0,2.071,14.643c2.845.856,9.058,2.11,14.894-.564C16.839,9.609,16.777,4.8,16.756,0Z" data-name="Path"
                            fill="#fff"
                            id="Path-19" transform="translate(35.101 246.326)" />
                        <path d="M25.119,70.308c.46-9.4,5.251-53.142,5.251-53.142S4.159-14.105.917,7.766,3.908,55.937,6.083,64.48C8.405,73.567,9.64,76.993,7.694,97.715a46.675,46.675,0,0,0,.335,11.134c5.627,2.778,13.074,1.671,16.588-.125C24.387,93.036,24.847,75.656,25.119,70.308Z" data-name="Path"
                            fill="url(#linear-gradient-4)"
                            id="Path-20" transform="translate(27.302 143.827)" />
                        <path d="M105.54,92.327s4.748,9.943,5.773,12.6,7.405,15.354,3.577,20.91c-3.807,5.536-10.062,6.705-12.133,10.278C100.666,139.683,90.96,152.279,75,159.9s-21.086,8.669-32.654,2.966S21.532,154.1,12.265,121.447C3.019,88.8-1.918,74.175.7,68.618S39.563,28.427,42.345,25.5,59.31-1.758,74.894.1c0,0,2.468,1.838-2.615,6.935C67.2,12.113,64.874,13.8,64.268,20.594c-.607,6.768,1.694,9.86-2.155,10.633S54.248,27.988,50.692,32s-9.1,14.831-12.656,22.665-10.187,14-13.89,17.693-4.937,2.465-4.309,6.162c.607,3.7,8.953,15.709,11.714,22.79,2.782,7.081,7.552,21.244,9.413,21.871s9.12-1.838,17.76,5.557c4.56,3.906,7.217,6,12.3,2.778,5.083-3.238,11.714-16.168,15.584-34.029Z" data-name="Path"
                            fill="url(#linear-gradient-5)"
                            id="Path-21" transform="translate(0.182 0.129)" />
                        <path d="M105.54,92.327s4.748,9.943,5.773,12.6,7.405,15.354,3.577,20.91c-3.807,5.536-10.062,6.705-12.133,10.278C100.666,139.683,90.96,152.279,75,159.9s-21.086,8.669-32.654,2.966S21.532,154.1,12.265,121.447C3.019,88.8-1.918,74.175.7,68.618S39.563,28.427,42.345,25.5,59.31-1.758,74.894.1c0,0,2.468,1.838-2.615,6.935C67.2,12.113,64.874,13.8,64.268,20.594c-.607,6.768,1.694,9.86-2.155,10.633S54.248,27.988,50.692,32s-9.1,14.831-12.656,22.665-10.187,14-13.89,17.693-4.937,2.465-4.309,6.162c.607,3.7,8.953,15.709,11.714,22.79,2.782,7.081,7.552,21.244,9.413,21.871s9.12-1.838,17.76,5.557c4.56,3.906,7.217,6,12.3,2.778,5.083-3.238,11.714-16.168,15.584-34.029Z" data-name="Path"
                            fill="url(#linear-gradient-6)"
                            id="Path-22" transform="translate(0.182 0.129)" />
                        <g data-name="Group" id="Group-8" transform="translate(63.801 132.438)">
                            <path d="M.607,0C.4.1.188.188,0,.292.188.188.4.1.607,0Z" data-name="Path"
                                fill="#fff"
                                id="Path-23" transform="translate(9.727 28.096)" />
                            <path d="M5.773,0A6.11,6.11,0,0,1,.46.167h0L0,1.107V25.9l4.832,4.658h0c.251-.1.481-.209.732-.313a.02.02,0,0,0,.021-.021c.983-.439,2.029-.9,3.117-1.42.063-.021.1-.063.167-.084.209-.1.418-.188.628-.292a.525.525,0,0,0,.146-.084C6.359,24.378,3.41,13.077,5.773,0Z" data-name="Path"
                                fill="#fff"
                                id="Path-24" transform="translate(0 0.042)" />
                            <path d="M.837,0C.565.125.272.272,0,.4.272.272.544.125.837,0Z" data-name="Path"
                                fill="#fff"
                                id="Path-25" transform="translate(10.543 27.595)" />
                        </g>
                        <path d="M0,5.557,6.861,17.714l6.631,2.8a42.257,42.257,0,0,0,6-9.337C12.258,10.9,5.564,0,5.564,0h0Z" data-name="Path"
                            fill="#fff"
                            id="Path-26" transform="translate(18.722 43.575)" />
                        <path d="M70.836,112.865C63.222,105.992,65.795,84,65.795,84h0c-2.3-.292-4.33-1.984-7.07-4.3-8.639-7.395-15.919-4.93-17.76-5.557-1.841-.606-6.631-14.79-9.413-21.871S20.444,33.172,19.837,29.475s.607-2.465,4.309-6.162a91.955,91.955,0,0,0,9.539-10.466C27.6,9.714,22.473,4.784,18.54,0,9.859,8.732,1.889,17.108.7,19.615c-2.615,5.536,2.322,20.179,11.568,52.829s18.513,35.721,30.081,41.423C52.846,119.027,58.055,118.651,70.836,112.865Z" data-name="Path"
                            fill="url(#linear-gradient-7)"
                            id="Path-27" transform="translate(0.161 49.132)" />
                        <path d="M55.661,84.153c-3.41,0-6.108-2.486-8.723-4.366a35.055,35.055,0,0,0-9.56-4.888c-3.326-1.107-6.757-1.316-10.145-2.089a9.242,9.242,0,0,1-4.477-2.152,13.337,13.337,0,0,1-2.719-4.491c-3.242-7.583-6.3-15.249-9.455-22.874C8.972,39.387,7.361,35.5,5.75,31.6c-.774-1.88-1.569-3.76-2.322-5.661A10.734,10.734,0,0,1,2.32,20.441a9.2,9.2,0,0,1,2.97-4.888c1.485-1.483,3.1-2.862,4.665-4.261C13.448,8.158,16.962,5.025,20.5,1.933,21.627.951,19.975-.678,18.866.3Q13.908,4.659,8.993,9.056C6.231,11.521,2.78,13.986.981,17.328c-1.966,3.656-.607,7.29.858,10.862Q4.38,34.364,6.922,40.515,12,52.861,17.109,65.186c1.36,3.28,2.7,6.789,5.983,8.585,3.117,1.713,6.819,1.671,10.208,2.4a33.7,33.7,0,0,1,11.84,5.16c3.242,2.256,6.317,5.118,10.5,5.139a1.16,1.16,0,0,0,.021-2.319Z" data-name="Path"
                            fill="#fff"
                            id="Path-28" transform="translate(11.57 56.682)" />
                        <path d="M.1,0C.063.042.042.084,0,.125.607.919,3.556,4.93,3.849,7.52,4.2,10.4,8.012,21.955,12.237,24.733h0A75.491,75.491,0,0,0,19.287,18.8c.628-1.4,1-2.486,1-2.486L14.706.836Z" data-name="Path"
                            fill="#f7699c"
                            id="Path-29" transform="translate(74.448 128.323)" />
                        <path d="M11.3,14.1C8.3,22.268,5.606,30.979,0,34.969c6.024,4.449,6.631,10.3,8.3,15.1,2.657,7.708,8.033,10.236,12.342,12.659,1.276-6.371,10.71-17,12.446-19.281,2.427-3.2,4.979-4.387,8.786-9.943,3.807-5.536-2.552-18.257-3.577-20.91S32.528,0,32.528,0,33.783,30.06,11.3,14.1Z" data-name="Path"
                            fill="#fff"
                            id="Path-30" transform="translate(73.193 92.435)" />
                        <g data-name="Group" id="Group-9" transform="translate(76.98 94.002)">
                            <path d="M16.735,23.563c-2.468-2.59-3.535-5.953-4.623-9.254S9.79,7.813,7.426,5.16A29.862,29.862,0,0,0,.941,0Q.471,1.1,0,2.131A23.691,23.691,0,0,1,6.547,7.708C8.786,10.674,9.6,14.351,10.836,17.8a19.539,19.539,0,0,0,5.522,8.585,17.659,17.659,0,0,0,3.117,2.089c.46-.648.92-1.253,1.381-1.859A15.078,15.078,0,0,1,16.735,23.563Z" data-name="Path"
                                fill="#fc90c2"
                                id="Path-31" transform="translate(2.97 22.143)" />
                            <path d="M10.543,14.434C8.221,10.9,6.987,6.81,4.958,3.133A28.525,28.525,0,0,0,2.949,0,9.1,9.1,0,0,1,0,.1,30.875,30.875,0,0,1,4.267,6.873c1.715,3.677,3.117,7.562,5.773,10.7A14.628,14.628,0,0,0,15,21.432c.565-.543,1.151-1.107,1.778-1.776A12.9,12.9,0,0,1,10.543,14.434Z" data-name="Path"
                                fill="#fc90c2"
                                id="Path-32" transform="translate(17.551 17.046)" />
                            <path d="M17.781,20.555c-2.029-3.3-3.117-7.061-5.02-10.424A23.132,23.132,0,0,0,.795,0C.523.731.272,1.441,0,2.172A20.942,20.942,0,0,1,5.4,5.139a22.419,22.419,0,0,1,6.652,8.669c1.611,3.489,2.866,7.165,5.376,10.131a13.317,13.317,0,0,0,4.853,3.718c.648-.794,1.192-1.441,1.527-1.88A11.857,11.857,0,0,1,17.781,20.555Z" data-name="Path"
                                fill="#fc90c2"
                                id="Path-33" transform="translate(5.355 16.335)" />
                            <path d="M18.073,30.206c.314-.668.669-1.358,1.067-2.047a19.675,19.675,0,0,1-5.648-4.784,23.82,23.82,0,0,1-4.121-8.92A33.113,33.113,0,0,0,5.878,5.222,22.064,22.064,0,0,0,1.255,0,22.165,22.165,0,0,1,0,1.943,19.139,19.139,0,0,1,4.539,7.5c1.694,3.112,2.238,6.643,3.305,9.985A22.279,22.279,0,0,0,18.073,30.206Z" data-name="Path"
                                fill="#fc90c2"
                                id="Path-34" transform="translate(0 27.574)" />
                            <path d="M11.233,17.129a38.217,38.217,0,0,0-1.088-3.823l-.167-.167A51.84,51.84,0,0,1,6.3,8.794,60.852,60.852,0,0,1,.774,0,29.769,29.769,0,0,1,0,3.426a63.254,63.254,0,0,0,5.46,8.042C7.029,13.411,8.911,15.855,11.233,17.129Z" data-name="Path"
                                fill="#fc90c2"
                                id="Path-35" transform="translate(27.487 5.515)" />
                            <path d="M5.083,6.1C3.933,4.073,2.8,1.984,1.527,0A10.2,10.2,0,0,1,0,1.859c1.527,2.465,2.845,5.1,4.33,7.5,2.343,3.8,5.648,7.562,9.853,9.149a6.609,6.609,0,0,0,.858-2.131C10.543,14.748,7.405,10.152,5.083,6.1Z" data-name="Path"
                                fill="#fc90c2"
                                id="Path-36" transform="translate(24.035 13.306)" />
                            <path d="M3.305,4.93C2.678,3.593,2.071,2.277,1.527,1.149,1.067.794.607.4.167,0,.146.773.1,1.776,0,2.883A18.543,18.543,0,0,0,3.305,4.93Z" data-name="Path"
                                fill="#fc90c2"
                                id="Path-37" transform="translate(28.554 0.167)" />
                        </g>
                        <path d="M0,1.274c0,.021,2.406,5.6,4.728,6.058a28.412,28.412,0,0,0,5.857.522A12.8,12.8,0,0,1,12.3,3.948V2.36L1.255,0C.586.668.648.606,0,1.274Z" data-name="Path"
                            fill="#d6c2c9"
                            id="Path-38" transform="translate(54.388 9.421)" />
                        <path d="M32.388,96.494s5.857-28.075,7.363-35.574,3.577-18.4,2.28-20.952a58.258,58.258,0,0,0-12.656-15.9c-6.464-5.515-11.254-9.943-14.266-9.463s-10.878.46-11.8-1.044S-2.357,7.318,1.471,4.791,8.75-.975,10.486.279A137.471,137.471,0,0,0,22.41,8.822C27.723,12.06,52.951,29.147,53.641,33.43s.983,18.821.23,30.373c-.774,11.8-3.577,18.362-2.552,27.616,1.046,9.233-8.221,16.168-8.221,16.168Z" data-name="Path"
                            fill="url(#linear-gradient-8)"
                            id="Path-39" transform="translate(54.402 1.058)" />
                    </g>
                </g>
                <g data-name="Group" id="Group-10" transform="translate(233.318 143.161)">
                    <path d="M1.989,0H25.25A2,2,0,0,1,27.2,2.172L23.074,61.686a1.977,1.977,0,0,1-1.9,1.88l-7.572.167-7.572-.167a1.977,1.977,0,0,1-1.9-1.88L0,2.172A2.057,2.057,0,0,1,1.989,0Z" data-name="Path"
                        fill="#f93e7d"
                        id="Path-40" transform="translate(16.587 81.573)" />
                    <g data-name="Group" id="Group-11" transform="translate(11.087)">
                        <path d="M3.6,18.724c-1.151-1-1.9-3.217-2.322-4.909a11.692,11.692,0,0,1,.565-1.149A15.025,15.025,0,0,1,3.121,10.7c1.046,7.249,8.974,12.93,8.974,12.93C8.539,20.186,6.238,11.789,5.38,8.2A22.23,22.23,0,0,1,9.02,5.439a20.494,20.494,0,0,0,3.7,8.105,3.105,3.105,0,0,0,.92,1.17s-.377-.439-.92-1.17c-1.13-2.256-1.171-6.434-.983-9.567C16.049,1.971,20.755,1.031,25.4.154a.71.71,0,0,1,.648-.125.613.613,0,0,1,.586.919c.962,2.465,1.841,4.972,2.615,7.5L22.6,21.9c2.678-.125,5.941-5.912,7.74-9.609.293,1.128.586,2.277.837,3.4.126.585.272,1.191.4,1.776-2.427,4.658-7.363,11.949-14.894,13.035,0,0,11.693-.522,16.065-6.705a56.187,56.187,0,0,1,.607,6.726c.1,3.8-.5,7.771-2.866,10.821-3.159.543-8.074,1.086-10.313-.063-.439-.313-.69-.5-.69-.5a2.935,2.935,0,0,0,.69.5,21.1,21.1,0,0,0,6.778,3.238,45.324,45.324,0,0,1-5.753,2.966c-3.514,1.629-7.3,3.4-9.016,7.123a.588.588,0,0,1-1,0c-2.092-4.721-4.037-9.526-5.857-14.351A107.136,107.136,0,0,1,.611,25.722a22.322,22.322,0,0,1-.4-8.147A8.2,8.2,0,0,0,3.6,18.724Z" data-name="Path"
                            fill="url(#linear-gradient-9)"
                            id="Path-41" transform="translate(0.184 0.014)" />
                        <path d="M6.458.556C6.5-.175,7.65-.2,7.608.556c-.4,9.526-6.317,17.86-6.443,27.407C1.04,37.488,8.361,44.3,12.4,52.257c2.176,4.282,3.41,9.17,2.176,13.912a.576.576,0,0,1-1.109-.313c2.447-9.442-5-17.317-9.413-24.8A26.177,26.177,0,0,1,.036,29.488c-.272-4.658,1.046-9.254,2.531-13.641C4.261,10.855,6.228,5.883,6.458.556Z" data-name="Path"
                            fill="#a2f7f9"
                            id="Path-42" transform="translate(10.549 15.132)" />
                    </g>
                    <g data-name="Group" id="Group-12" transform="translate(0 35.303)">
                        <path d="M.063,10.911A97.012,97.012,0,0,1,.816.466.591.591,0,0,1,1.757.132c3.18,3.4,7.426,5.264,11.589,7.186a6.287,6.287,0,0,1,.335,4.617s1.757-.9,1.171-3.927c.69.334,1.381.668,2.05,1,.795.418,1.59.856,2.364,1.337a7.408,7.408,0,0,1-1.422,7.771s3.682-2.528,4.016-5.933a14.543,14.543,0,0,1,1.757,1.65,4.57,4.57,0,0,1-1.255,3.029,6.965,6.965,0,0,0,2.8-1.086,18.613,18.613,0,0,1,2.657,6.246c-.774,2.193-1.9,4.867-3.2,6.225,0,0,1.862-1.316,3.744-2.987a59.157,59.157,0,0,1-.084,10.716.491.491,0,0,1-.042.167c.042.042.063.1.1.146a.58.58,0,0,1-.962.648c-2.134-3.3-6.443-3.363-9.957-3.551a16.378,16.378,0,0,1-8.953-2.695,17.5,17.5,0,0,1-4.121-4.115c3.41-.9,8.639-4.429,8.639-4.429-3.828,2.214-8.284,1.379-10.794.606a22.014,22.014,0,0,1-1.088-3.05c3.075.9,6.8-1.337,6.8-1.337-2.7.209-5.522-1.379-7.677-3.008C.167,14.8.1,14.253.063,13.689.042,13.23,0,12.791,0,12.331a2.717,2.717,0,0,0,2.615,1.441C1.694,13.564.628,11.914.063,10.911Z" data-name="Path"
                            fill="url(#linear-gradient-10)"
                            id="Path-43" transform="translate(0.188 0.181)" />
                        <path d="M1.068.282c3.786,6.789,9.727,11.97,14.183,18.3,4.163,5.912,7.008,13.515,4.33,20.639-.251.689-1.381.4-1.109-.313,2.74-7.29-.565-14.852-4.916-20.743S3.682,7.3.084.846A.567.567,0,0,1,1.068.282Z" data-name="Path"
                            fill="#a2f7f9"
                            id="Path-44" transform="translate(11.274 15.28)" />
                    </g>
                    <g data-name="Group" id="Group-13" transform="translate(24.056 22.769)">
                        <path d="M7.52,24.472c-2.908-2.256-2.008-7.583-1.109-10.821a29.13,29.13,0,0,1,8.639-4.93c1.192,6.664,6.694,6.121,6.694,6.121A8.971,8.971,0,0,1,16.725,8.1c1.151-.418,2.3-.794,3.452-1.149,1.506,2.277,5.439,4.366,5.439,4.366-1-.961-.92-3.593-.586-5.87,4.246-1.316,8.514-2.8,12.2-5.348a.484.484,0,0,1,.4-.084h.042A.425.425,0,0,1,37.915.2c4.769,6.141,7.342,14.226,5.92,21.85-5.355,1.462-13.722,2.716-19.872-.5,0,0,8.43,5.786,18.617,4.784-.042.1-.084.209-.126.334a23.4,23.4,0,0,1-2.866,4.888c-3.493-.251-8.242-1.044-10.208-3.28,0,0,3.2,4.763,6.464,7.081a17.547,17.547,0,0,1-1.924,1.337C29.4,39.45,24.3,39.492,19.214,40.16c-5.146.668-12.321,3.384-11.986,9.734a.585.585,0,0,1-1.088.272C2.019,40.975-2.52,30.112,1.663,20.232A27.577,27.577,0,0,0,7.52,24.472Z" data-name="Path"
                            fill="url(#linear-gradient-11)"
                            id="Path-45" transform="translate(0.177 0.073)" />
                        <path d="M14.465.853C6.1,13.241-2.626,28.469,2.9,43.8c.251.71-.858,1-1.109.313C-3.86,28.49,4.926,12.906,13.461.268,13.879-.358,14.862.227,14.465.853Z" data-name="Path"
                            fill="#a2f7f9"
                            id="Path-46" transform="translate(5.993 20.704)" />
                    </g>
                    <path d="M2,0H26.219a2.039,2.039,0,0,1,2.029,2.172L23.981,61.686a2.039,2.039,0,0,1-1.987,1.88l-7.865.167-7.865-.167a2.039,2.039,0,0,1-1.987-1.88L.008,2.172A1.983,1.983,0,0,1,2,0Z" data-name="Path"
                        fill="#fffdfd"
                        id="Path-47" transform="translate(16.099 78.982)" />
                </g>
            </g>
        </g>
    </g>
</svg>
